<svg width="40" height="40" viewBox="0 0 40 40" fill="none" xmlns="http://www.w3.org/2000/svg">
<path d="M16.6667 28.3334C17.1269 28.3334 17.5 27.9603 17.5 27.5C17.5 27.0398 17.1269 26.6667 16.6667 26.6667C16.2065 26.6667 15.8334 27.0398 15.8334 27.5C15.8334 27.9603 16.2065 28.3334 16.6667 28.3334Z" stroke="#6B7280" stroke-width="1.66667" stroke-linecap="round" stroke-linejoin="round"/>
<path d="M25.8333 28.3334C26.2936 28.3334 26.6667 27.9603 26.6667 27.5C26.6667 27.0398 26.2936 26.6667 25.8333 26.6667C25.3731 26.6667 25 27.0398 25 27.5C25 27.9603 25.3731 28.3334 25.8333 28.3334Z" stroke="#6B7280" stroke-width="1.66667" stroke-linecap="round" stroke-linejoin="round"/>
<path d="M11.7084 11.7083H13.375L15.5917 22.0583C15.673 22.4374 15.8839 22.7762 16.1881 23.0165C16.4923 23.2568 16.8708 23.3836 17.2584 23.375H25.4084C25.7877 23.3744 26.1554 23.2444 26.4509 23.0065C26.7463 22.7686 26.9518 22.4371 27.0334 22.0666L28.4084 15.875H14.2667" stroke="#6B7280" stroke-width="1.66667" stroke-linecap="round" stroke-linejoin="round"/>
</svg>
