<svg width="18" height="18" viewBox="0 0 18 18" fill="none" xmlns="http://www.w3.org/2000/svg">
<g clip-path="url(#clip0_181_472)">
<path d="M6 16.5C6.41421 16.5 6.75 16.1642 6.75 15.75C6.75 15.3358 6.41421 15 6 15C5.58579 15 5.25 15.3358 5.25 15.75C5.25 16.1642 5.58579 16.5 6 16.5Z" stroke="#99A1AF" stroke-width="1.5" stroke-linecap="round" stroke-linejoin="round"/>
<path d="M14.25 16.5C14.6642 16.5 15 16.1642 15 15.75C15 15.3358 14.6642 15 14.25 15C13.8358 15 13.5 15.3358 13.5 15.75C13.5 16.1642 13.8358 16.5 14.25 16.5Z" stroke="#99A1AF" stroke-width="1.5" stroke-linecap="round" stroke-linejoin="round"/>
<path d="M1.53748 1.53711H3.03748L5.03248 10.8521C5.10566 11.1933 5.29548 11.4982 5.56926 11.7145C5.84304 11.9308 6.18366 12.0449 6.53248 12.0371H13.8675C14.2089 12.0366 14.5398 11.9196 14.8057 11.7055C15.0717 11.4914 15.2566 11.193 15.33 10.8596L16.5675 5.28711H3.83998" stroke="#99A1AF" stroke-width="1.5" stroke-linecap="round" stroke-linejoin="round"/>
</g>
<defs>
<clipPath id="clip0_181_472">
<rect width="18" height="18" fill="white"/>
</clipPath>
</defs>
</svg>
