<svg width="414" height="112" viewBox="0 0 414 112" fill="none" xmlns="http://www.w3.org/2000/svg">
<rect y="3" width="10" height="10" rx="5" fill="#1A73E8"/>
<path d="M19.0568 12V3.27273H24.3239V4.21023H20.1136V7.15909H24.0511V8.09659H20.1136V11.0625H24.392V12H19.0568ZM27.098 3.27273V12H26.0923V3.27273H27.098ZM31.6843 12.1364C31.0536 12.1364 30.5096 11.9972 30.0522 11.7188C29.5977 11.4375 29.2468 11.0455 28.9996 10.5426C28.7553 10.0369 28.6332 9.44886 28.6332 8.77841C28.6332 8.10795 28.7553 7.51705 28.9996 7.00568C29.2468 6.49148 29.5906 6.09091 30.0309 5.80398C30.4741 5.5142 30.9911 5.36932 31.582 5.36932C31.9229 5.36932 32.2596 5.42614 32.592 5.53977C32.9244 5.65341 33.2269 5.83807 33.4996 6.09375C33.7724 6.34659 33.9897 6.68182 34.1516 7.09943C34.3136 7.51705 34.3945 8.03125 34.3945 8.64205V9.06818H29.3491V8.19886H33.3718C33.3718 7.82955 33.2979 7.5 33.1502 7.21023C33.0053 6.92045 32.7979 6.69176 32.5281 6.52415C32.261 6.35653 31.9457 6.27273 31.582 6.27273C31.1815 6.27273 30.8349 6.37216 30.5423 6.57102C30.2525 6.76705 30.0295 7.02273 29.8732 7.33807C29.717 7.65341 29.6388 7.99148 29.6388 8.35227V8.93182C29.6388 9.42614 29.7241 9.84517 29.8945 10.1889C30.0678 10.5298 30.3079 10.7898 30.6147 10.9688C30.9215 11.1449 31.2781 11.233 31.6843 11.233C31.9485 11.233 32.1871 11.196 32.4002 11.1222C32.6161 11.0455 32.8022 10.9318 32.9585 10.7812C33.1147 10.6278 33.2354 10.4375 33.3207 10.2102L34.2923 10.483C34.19 10.8125 34.0181 11.1023 33.7766 11.3523C33.5352 11.5994 33.2369 11.7926 32.8817 11.9318C32.5266 12.0682 32.1275 12.1364 31.6843 12.1364ZM36.8619 9.61364L36.8448 8.36932H37.0494L39.913 5.45455H41.1573L38.1062 8.53977H38.021L36.8619 9.61364ZM35.9244 12V3.27273H36.93V12H35.9244ZM40.0835 12L37.5266 8.76136L38.2425 8.0625L41.3619 12H40.0835ZM45.2983 5.45455V6.30682H41.9062V5.45455H45.2983ZM42.8949 3.88636H43.9006V10.125C43.9006 10.4091 43.9418 10.6222 44.0241 10.7642C44.1094 10.9034 44.2173 10.9972 44.348 11.0455C44.4815 11.0909 44.6222 11.1136 44.7699 11.1136C44.8807 11.1136 44.9716 11.108 45.0426 11.0966C45.1136 11.0824 45.1705 11.071 45.2131 11.0625L45.4176 11.9659C45.3494 11.9915 45.2543 12.017 45.1321 12.0426C45.0099 12.071 44.8551 12.0852 44.6676 12.0852C44.3835 12.0852 44.1051 12.0241 43.8324 11.902C43.5625 11.7798 43.3381 11.5938 43.1591 11.3438C42.983 11.0938 42.8949 10.7784 42.8949 10.3977V3.88636ZM46.8111 12V5.45455H47.7827V6.44318H47.8509C47.9702 6.11932 48.1861 5.85653 48.4986 5.65483C48.8111 5.45312 49.1634 5.35227 49.5554 5.35227C49.6293 5.35227 49.7216 5.35369 49.8324 5.35653C49.9432 5.35937 50.027 5.36364 50.0838 5.36932V6.39205C50.0497 6.38352 49.9716 6.37074 49.8494 6.35369C49.7301 6.33381 49.6037 6.32386 49.4702 6.32386C49.152 6.32386 48.8679 6.39062 48.6179 6.52415C48.3707 6.65483 48.1747 6.83665 48.0298 7.0696C47.8878 7.29972 47.8168 7.5625 47.8168 7.85795V12H46.8111ZM53.7358 12.1364C53.1449 12.1364 52.6264 11.9957 52.1804 11.7145C51.7372 11.4332 51.3906 11.0398 51.1406 10.5341C50.8935 10.0284 50.7699 9.4375 50.7699 8.76136C50.7699 8.07955 50.8935 7.48437 51.1406 6.97585C51.3906 6.46733 51.7372 6.07244 52.1804 5.79119C52.6264 5.50994 53.1449 5.36932 53.7358 5.36932C54.3267 5.36932 54.8438 5.50994 55.2869 5.79119C55.733 6.07244 56.0795 6.46733 56.3267 6.97585C56.5767 7.48437 56.7017 8.07955 56.7017 8.76136C56.7017 9.4375 56.5767 10.0284 56.3267 10.5341C56.0795 11.0398 55.733 11.4332 55.2869 11.7145C54.8438 11.9957 54.3267 12.1364 53.7358 12.1364ZM53.7358 11.233C54.1847 11.233 54.554 11.1179 54.8438 10.8878C55.1335 10.6577 55.348 10.3551 55.4872 9.98011C55.6264 9.60511 55.696 9.19886 55.696 8.76136C55.696 8.32386 55.6264 7.91619 55.4872 7.53835C55.348 7.16051 55.1335 6.85511 54.8438 6.62216C54.554 6.3892 54.1847 6.27273 53.7358 6.27273C53.2869 6.27273 52.9176 6.3892 52.6278 6.62216C52.3381 6.85511 52.1236 7.16051 51.9844 7.53835C51.8452 7.91619 51.7756 8.32386 51.7756 8.76136C51.7756 9.19886 51.8452 9.60511 51.9844 9.98011C52.1236 10.3551 52.3381 10.6577 52.6278 10.8878C52.9176 11.1179 53.2869 11.233 53.7358 11.233ZM59.2425 8.0625V12H58.2369V5.45455H59.2085V6.47727H59.2937C59.4471 6.14489 59.68 5.87784 59.9925 5.67614C60.305 5.47159 60.7085 5.36932 61.2028 5.36932C61.646 5.36932 62.0337 5.46023 62.3661 5.64205C62.6985 5.82102 62.957 6.09375 63.1417 6.46023C63.3263 6.82386 63.4187 7.28409 63.4187 7.84091V12H62.413V7.90909C62.413 7.39489 62.2795 6.99432 62.0124 6.70739C61.7454 6.41761 61.3789 6.27273 60.913 6.27273C60.592 6.27273 60.305 6.34233 60.0522 6.48153C59.8022 6.62074 59.6048 6.82386 59.4599 7.09091C59.315 7.35795 59.2425 7.68182 59.2425 8.0625ZM65.2564 12V5.45455H66.2621V12H65.2564ZM65.7678 4.36364C65.5717 4.36364 65.4027 4.29688 65.2607 4.16335C65.1214 4.02983 65.0518 3.86932 65.0518 3.68182C65.0518 3.49432 65.1214 3.33381 65.2607 3.20028C65.4027 3.06676 65.5717 3 65.7678 3C65.9638 3 66.1314 3.06676 66.2706 3.20028C66.4126 3.33381 66.4837 3.49432 66.4837 3.68182C66.4837 3.86932 66.4126 4.02983 66.2706 4.16335C66.1314 4.29688 65.9638 4.36364 65.7678 4.36364ZM69.0415 9.61364L69.0245 8.36932H69.229L72.0927 5.45455H73.337L70.2859 8.53977H70.2006L69.0415 9.61364ZM68.104 12V3.27273H69.1097V12H68.104ZM72.2631 12L69.7063 8.76136L70.4222 8.0625L73.5415 12H72.2631Z" fill="#6B7280"/>
<path d="M389.699 10.2102V9.34091L393.534 3.27273H394.165V4.61932H393.739L390.841 9.20455V9.27273H396.006V10.2102H389.699ZM393.807 12V9.94602V9.54119V3.27273H394.812V12H393.807ZM400.33 12.1193C399.83 12.1193 399.38 12.0199 398.979 11.821C398.578 11.6222 398.257 11.3494 398.016 11.0028C397.775 10.6562 397.642 10.2614 397.62 9.81818H398.642C398.682 10.2131 398.861 10.5398 399.179 10.7983C399.5 11.054 399.884 11.1818 400.33 11.1818C400.688 11.1818 401.006 11.098 401.284 10.9304C401.566 10.7628 401.786 10.5327 401.945 10.2401C402.107 9.9446 402.188 9.6108 402.188 9.23864C402.188 8.85795 402.104 8.51847 401.936 8.22017C401.772 7.91903 401.544 7.68182 401.255 7.50852C400.965 7.33523 400.634 7.24716 400.262 7.24432C399.995 7.24148 399.721 7.28267 399.439 7.3679C399.158 7.45028 398.926 7.55682 398.745 7.6875L397.756 7.56818L398.284 3.27273H402.819V4.21023H399.171L398.864 6.78409H398.915C399.094 6.64205 399.319 6.52415 399.588 6.4304C399.858 6.33665 400.14 6.28977 400.432 6.28977C400.966 6.28977 401.442 6.41761 401.86 6.6733C402.28 6.92614 402.61 7.27273 402.848 7.71307C403.09 8.15341 403.211 8.65625 403.211 9.22159C403.211 9.77841 403.086 10.2756 402.836 10.7131C402.588 11.1477 402.248 11.4915 401.813 11.7443C401.378 11.9943 400.884 12.1193 400.33 12.1193ZM409.352 10.3636V9.90341C409.352 9.58523 409.418 9.29403 409.548 9.02983C409.682 8.76278 409.875 8.54972 410.128 8.39062C410.384 8.22869 410.693 8.14773 411.057 8.14773C411.426 8.14773 411.736 8.22869 411.986 8.39062C412.236 8.54972 412.425 8.76278 412.553 9.02983C412.68 9.29403 412.744 9.58523 412.744 9.90341V10.3636C412.744 10.6818 412.679 10.9744 412.548 11.2415C412.42 11.5057 412.23 11.7187 411.977 11.8807C411.727 12.0398 411.42 12.1193 411.057 12.1193C410.688 12.1193 410.376 12.0398 410.124 11.8807C409.871 11.7187 409.679 11.5057 409.548 11.2415C409.418 10.9744 409.352 10.6818 409.352 10.3636ZM410.222 9.90341V10.3636C410.222 10.6278 410.284 10.8651 410.409 11.0753C410.534 11.2827 410.75 11.3864 411.057 11.3864C411.355 11.3864 411.565 11.2827 411.688 11.0753C411.812 10.8651 411.875 10.6278 411.875 10.3636V9.90341C411.875 9.6392 411.815 9.40341 411.696 9.19602C411.577 8.9858 411.364 8.88068 411.057 8.88068C410.759 8.88068 410.544 8.9858 410.413 9.19602C410.286 9.40341 410.222 9.6392 410.222 9.90341ZM405.006 5.36932V4.90909C405.006 4.59091 405.071 4.29972 405.202 4.03551C405.335 3.76847 405.528 3.5554 405.781 3.39631C406.037 3.23437 406.347 3.15341 406.71 3.15341C407.08 3.15341 407.389 3.23437 407.639 3.39631C407.889 3.5554 408.078 3.76847 408.206 4.03551C408.334 4.29972 408.398 4.59091 408.398 4.90909V5.36932C408.398 5.6875 408.332 5.98011 408.202 6.24716C408.074 6.51136 407.884 6.72443 407.631 6.88636C407.381 7.04545 407.074 7.125 406.71 7.125C406.341 7.125 406.03 7.04545 405.777 6.88636C405.524 6.72443 405.332 6.51136 405.202 6.24716C405.071 5.98011 405.006 5.6875 405.006 5.36932ZM405.875 4.90909V5.36932C405.875 5.63352 405.938 5.87074 406.062 6.08097C406.188 6.28835 406.403 6.39205 406.71 6.39205C407.009 6.39205 407.219 6.28835 407.341 6.08097C407.466 5.87074 407.528 5.63352 407.528 5.36932V4.90909C407.528 4.64489 407.469 4.40909 407.349 4.2017C407.23 3.99148 407.017 3.88636 406.71 3.88636C406.412 3.88636 406.197 3.99148 406.067 4.2017C405.939 4.40909 405.875 4.64489 405.875 4.90909ZM405.33 12L411.33 3.27273H412.301L406.301 12H405.33Z" fill="#111827"/>
<rect y="27" width="10" height="10" rx="5" fill="#F97316"/>
<path d="M19.0568 36V27.2727H24.2898V28.2102H20.1136V31.1591H23.8977V32.0966H20.1136V36H19.0568ZM27.8896 36.1534C27.4748 36.1534 27.0984 36.0753 26.7603 35.919C26.4222 35.7599 26.1538 35.5312 25.9549 35.233C25.756 34.9318 25.6566 34.5682 25.6566 34.142C25.6566 33.767 25.7305 33.4631 25.8782 33.2301C26.0259 32.9943 26.2234 32.8097 26.4705 32.6761C26.7177 32.5426 26.9904 32.4432 27.2887 32.3778C27.5898 32.3097 27.8924 32.2557 28.1964 32.2159C28.5941 32.1648 28.9165 32.1264 29.1637 32.1009C29.4137 32.0724 29.5955 32.0256 29.7092 31.9602C29.8256 31.8949 29.8839 31.7812 29.8839 31.6193V31.5852C29.8839 31.1648 29.7688 30.8381 29.5387 30.6051C29.3114 30.3722 28.9663 30.2557 28.5032 30.2557C28.0231 30.2557 27.6467 30.3608 27.3739 30.571C27.1012 30.7812 26.9094 31.0057 26.7987 31.2443L25.8441 30.9034C26.0146 30.5057 26.2418 30.196 26.5259 29.9744C26.8129 29.75 27.1254 29.5937 27.4634 29.5057C27.8043 29.4148 28.1396 29.3693 28.4691 29.3693C28.6793 29.3693 28.9208 29.3949 29.1935 29.446C29.4691 29.4943 29.7347 29.5952 29.9904 29.7486C30.2489 29.902 30.4634 30.1335 30.6339 30.4432C30.8043 30.7528 30.8896 31.1676 30.8896 31.6875V36H29.8839V35.1136H29.8327C29.7646 35.2557 29.6509 35.4077 29.4918 35.5696C29.3327 35.7315 29.1211 35.8693 28.8569 35.983C28.5927 36.0966 28.2702 36.1534 27.8896 36.1534ZM28.043 35.25C28.4407 35.25 28.7759 35.1719 29.0487 35.0156C29.3242 34.8594 29.5316 34.6577 29.6708 34.4105C29.8129 34.1634 29.8839 33.9034 29.8839 33.6307V32.7102C29.8413 32.7614 29.7475 32.8082 29.6026 32.8509C29.4606 32.8906 29.2958 32.9261 29.1083 32.9574C28.9237 32.9858 28.7433 33.0114 28.5671 33.0341C28.3938 33.054 28.2532 33.071 28.1452 33.0852C27.8839 33.1193 27.6396 33.1747 27.4123 33.2514C27.1879 33.3253 27.006 33.4375 26.8668 33.5881C26.7305 33.7358 26.6623 33.9375 26.6623 34.1932C26.6623 34.5426 26.7915 34.8068 27.0501 34.9858C27.3114 35.1619 27.6424 35.25 28.043 35.25ZM37.3615 30.9205L36.4581 31.1761C36.4013 31.0256 36.3175 30.8793 36.2067 30.7372C36.0987 30.5923 35.951 30.473 35.7635 30.3793C35.576 30.2855 35.3359 30.2386 35.0433 30.2386C34.6428 30.2386 34.3089 30.331 34.0419 30.5156C33.7777 30.6974 33.6456 30.929 33.6456 31.2102C33.6456 31.4602 33.7365 31.6577 33.9183 31.8026C34.1001 31.9474 34.3842 32.0682 34.7706 32.1648L35.7422 32.4034C36.3274 32.5455 36.7635 32.7628 37.0504 33.0554C37.3374 33.3452 37.4808 33.7187 37.4808 34.1761C37.4808 34.5511 37.3729 34.8864 37.157 35.1818C36.9439 35.4773 36.6456 35.7102 36.2621 35.8807C35.8786 36.0511 35.4325 36.1364 34.924 36.1364C34.2564 36.1364 33.7038 35.9915 33.2663 35.7017C32.8288 35.4119 32.5518 34.9886 32.4354 34.4318L33.3899 34.1932C33.4808 34.5455 33.6527 34.8097 33.9055 34.9858C34.1612 35.1619 34.495 35.25 34.907 35.25C35.3757 35.25 35.7479 35.1506 36.0234 34.9517C36.3018 34.75 36.4411 34.5085 36.4411 34.2273C36.4411 34 36.3615 33.8097 36.2024 33.6562C36.0433 33.5 35.799 33.3835 35.4695 33.3068L34.3786 33.0511C33.7791 32.9091 33.3388 32.6889 33.0575 32.3906C32.7791 32.0895 32.6399 31.7131 32.6399 31.2614C32.6399 30.892 32.7436 30.5653 32.951 30.2812C33.1612 29.9972 33.4467 29.7741 33.8075 29.6122C34.1712 29.4503 34.5831 29.3693 35.0433 29.3693C35.6911 29.3693 36.1996 29.5114 36.5689 29.7955C36.9411 30.0795 37.2053 30.4545 37.3615 30.9205ZM40.0004 32.0625V36H38.9947V27.2727H40.0004V30.4773H40.0856C40.239 30.1392 40.4691 29.8707 40.7759 29.6719C41.0856 29.4702 41.4975 29.3693 42.0117 29.3693C42.4577 29.3693 42.8484 29.4588 43.1836 29.6378C43.5188 29.8139 43.7788 30.0852 43.9634 30.4517C44.1509 30.8153 44.2447 31.2784 44.2447 31.8409V36H43.239V31.9091C43.239 31.3892 43.104 30.9872 42.8342 30.7031C42.5671 30.4162 42.1964 30.2727 41.7219 30.2727C41.3924 30.2727 41.0969 30.3423 40.8356 30.4815C40.5771 30.6207 40.3725 30.8239 40.2219 31.0909C40.0742 31.358 40.0004 31.6818 40.0004 32.0625ZM46.0845 36V29.4545H47.0902V36H46.0845ZM46.5959 28.3636C46.3999 28.3636 46.2308 28.2969 46.0888 28.1634C45.9496 28.0298 45.88 27.8693 45.88 27.6818C45.88 27.4943 45.9496 27.3338 46.0888 27.2003C46.2308 27.0668 46.3999 27 46.5959 27C46.7919 27 46.9595 27.0668 47.0987 27.2003C47.2408 27.3338 47.3118 27.4943 47.3118 27.6818C47.3118 27.8693 47.2408 28.0298 47.0987 28.1634C46.9595 28.2969 46.7919 28.3636 46.5959 28.3636ZM51.5913 36.1364C51.0004 36.1364 50.4819 35.9957 50.0359 35.7145C49.5927 35.4332 49.2461 35.0398 48.9961 34.5341C48.7489 34.0284 48.6254 33.4375 48.6254 32.7614C48.6254 32.0795 48.7489 31.4844 48.9961 30.9759C49.2461 30.4673 49.5927 30.0724 50.0359 29.7912C50.4819 29.5099 51.0004 29.3693 51.5913 29.3693C52.1822 29.3693 52.6992 29.5099 53.1424 29.7912C53.5884 30.0724 53.935 30.4673 54.1822 30.9759C54.4322 31.4844 54.5572 32.0795 54.5572 32.7614C54.5572 33.4375 54.4322 34.0284 54.1822 34.5341C53.935 35.0398 53.5884 35.4332 53.1424 35.7145C52.6992 35.9957 52.1822 36.1364 51.5913 36.1364ZM51.5913 35.233C52.0401 35.233 52.4094 35.1179 52.6992 34.8878C52.989 34.6577 53.2035 34.3551 53.3427 33.9801C53.4819 33.6051 53.5515 33.1989 53.5515 32.7614C53.5515 32.3239 53.4819 31.9162 53.3427 31.5384C53.2035 31.1605 52.989 30.8551 52.6992 30.6222C52.4094 30.3892 52.0401 30.2727 51.5913 30.2727C51.1424 30.2727 50.7731 30.3892 50.4833 30.6222C50.1935 30.8551 49.979 31.1605 49.8398 31.5384C49.7006 31.9162 49.631 32.3239 49.631 32.7614C49.631 33.1989 49.7006 33.6051 49.8398 33.9801C49.979 34.3551 50.1935 34.6577 50.4833 34.8878C50.7731 35.1179 51.1424 35.233 51.5913 35.233ZM57.098 32.0625V36H56.0923V29.4545H57.0639V30.4773H57.1491C57.3026 30.1449 57.5355 29.8778 57.848 29.6761C58.1605 29.4716 58.5639 29.3693 59.0582 29.3693C59.5014 29.3693 59.8892 29.4602 60.2216 29.642C60.554 29.821 60.8125 30.0938 60.9972 30.4602C61.1818 30.8239 61.2741 31.2841 61.2741 31.8409V36H60.2685V31.9091C60.2685 31.3949 60.1349 30.9943 59.8679 30.7074C59.6009 30.4176 59.2344 30.2727 58.7685 30.2727C58.4474 30.2727 58.1605 30.3423 57.9077 30.4815C57.6577 30.6207 57.4602 30.8239 57.3153 31.0909C57.1705 31.358 57.098 31.6818 57.098 32.0625Z" fill="#6B7280"/>
<path d="M389.903 36V35.233L392.784 32.0795C393.122 31.7102 393.401 31.3892 393.619 31.1165C393.838 30.8409 394 30.5824 394.105 30.3409C394.213 30.0966 394.267 29.8409 394.267 29.5739C394.267 29.267 394.193 29.0014 394.045 28.777C393.901 28.5526 393.702 28.3793 393.449 28.2571C393.196 28.1349 392.912 28.0739 392.597 28.0739C392.261 28.0739 391.969 28.1435 391.719 28.2827C391.472 28.419 391.28 28.6108 391.143 28.858C391.01 29.1051 390.943 29.3949 390.943 29.7273H389.938C389.938 29.2159 390.055 28.767 390.291 28.3807C390.527 27.9943 390.848 27.6932 391.254 27.4773C391.663 27.2614 392.122 27.1534 392.631 27.1534C393.142 27.1534 393.595 27.2614 393.99 27.4773C394.385 27.6932 394.695 27.9844 394.919 28.3509C395.143 28.7173 395.256 29.125 395.256 29.5739C395.256 29.8949 395.197 30.2088 395.081 30.5156C394.967 30.8196 394.768 31.1591 394.484 31.5341C394.203 31.9062 393.812 32.3608 393.312 32.8977L391.352 34.9943V35.0625H395.409V36H389.903ZM399.964 36.1193C399.379 36.1193 398.862 36.0156 398.413 35.8082C397.967 35.598 397.619 35.3097 397.369 34.9432C397.119 34.5739 396.996 34.1534 396.999 33.6818C396.996 33.3125 397.068 32.9716 397.216 32.6591C397.364 32.3437 397.565 32.081 397.821 31.8707C398.08 31.6577 398.368 31.5227 398.686 31.4659V31.4148C398.268 31.3068 397.936 31.0724 397.689 30.7116C397.442 30.348 397.32 29.9347 397.322 29.4716C397.32 29.0284 397.432 28.6321 397.659 28.2827C397.886 27.9332 398.199 27.6577 398.597 27.456C398.997 27.2543 399.453 27.1534 399.964 27.1534C400.47 27.1534 400.922 27.2543 401.32 27.456C401.717 27.6577 402.03 27.9332 402.257 28.2827C402.487 28.6321 402.604 29.0284 402.607 29.4716C402.604 29.9347 402.477 30.348 402.227 30.7116C401.98 31.0724 401.652 31.3068 401.243 31.4148V31.4659C401.558 31.5227 401.842 31.6577 402.095 31.8707C402.348 32.081 402.55 32.3437 402.7 32.6591C402.851 32.9716 402.928 33.3125 402.93 33.6818C402.928 34.1534 402.8 34.5739 402.547 34.9432C402.297 35.3097 401.949 35.598 401.503 35.8082C401.06 36.0156 400.547 36.1193 399.964 36.1193ZM399.964 35.1818C400.359 35.1818 400.7 35.1179 400.987 34.9901C401.274 34.8622 401.496 34.6818 401.652 34.4489C401.808 34.2159 401.888 33.9432 401.891 33.6307C401.888 33.3011 401.803 33.0099 401.635 32.7571C401.467 32.5043 401.239 32.3054 400.949 32.1605C400.662 32.0156 400.334 31.9432 399.964 31.9432C399.592 31.9432 399.26 32.0156 398.967 32.1605C398.678 32.3054 398.449 32.5043 398.281 32.7571C398.116 33.0099 398.036 33.3011 398.038 33.6307C398.036 33.9432 398.111 34.2159 398.264 34.4489C398.42 34.6818 398.643 34.8622 398.933 34.9901C399.223 35.1179 399.567 35.1818 399.964 35.1818ZM399.964 31.0398C400.277 31.0398 400.554 30.9773 400.795 30.8523C401.04 30.7273 401.232 30.5526 401.371 30.3281C401.51 30.1037 401.581 29.8409 401.584 29.5398C401.581 29.2443 401.511 28.9872 401.375 28.7685C401.239 28.5469 401.05 28.3764 400.808 28.2571C400.567 28.1349 400.286 28.0739 399.964 28.0739C399.638 28.0739 399.352 28.1349 399.108 28.2571C398.864 28.3764 398.675 28.5469 398.541 28.7685C398.408 28.9872 398.342 29.2443 398.345 29.5398C398.342 29.8409 398.409 30.1037 398.545 30.3281C398.685 30.5526 398.876 30.7273 399.121 30.8523C399.365 30.9773 399.646 31.0398 399.964 31.0398ZM409.012 34.3636V33.9034C409.012 33.5852 409.078 33.294 409.208 33.0298C409.342 32.7628 409.535 32.5497 409.788 32.3906C410.044 32.2287 410.353 32.1477 410.717 32.1477C411.086 32.1477 411.396 32.2287 411.646 32.3906C411.896 32.5497 412.085 32.7628 412.213 33.0298C412.341 33.294 412.404 33.5852 412.404 33.9034V34.3636C412.404 34.6818 412.339 34.9744 412.208 35.2415C412.081 35.5057 411.89 35.7187 411.637 35.8807C411.387 36.0398 411.081 36.1193 410.717 36.1193C410.348 36.1193 410.037 36.0398 409.784 35.8807C409.531 35.7187 409.339 35.5057 409.208 35.2415C409.078 34.9744 409.012 34.6818 409.012 34.3636ZM409.882 33.9034V34.3636C409.882 34.6278 409.944 34.8651 410.069 35.0753C410.194 35.2827 410.41 35.3864 410.717 35.3864C411.015 35.3864 411.225 35.2827 411.348 35.0753C411.473 34.8651 411.535 34.6278 411.535 34.3636V33.9034C411.535 33.6392 411.475 33.4034 411.356 33.196C411.237 32.9858 411.024 32.8807 410.717 32.8807C410.419 32.8807 410.204 32.9858 410.074 33.196C409.946 33.4034 409.882 33.6392 409.882 33.9034ZM404.666 29.3693V28.9091C404.666 28.5909 404.731 28.2997 404.862 28.0355C404.995 27.7685 405.189 27.5554 405.441 27.3963C405.697 27.2344 406.007 27.1534 406.37 27.1534C406.74 27.1534 407.049 27.2344 407.299 27.3963C407.549 27.5554 407.738 27.7685 407.866 28.0355C407.994 28.2997 408.058 28.5909 408.058 28.9091V29.3693C408.058 29.6875 407.993 29.9801 407.862 30.2472C407.734 30.5114 407.544 30.7244 407.291 30.8864C407.041 31.0455 406.734 31.125 406.37 31.125C406.001 31.125 405.69 31.0455 405.437 30.8864C405.184 30.7244 404.993 30.5114 404.862 30.2472C404.731 29.9801 404.666 29.6875 404.666 29.3693ZM405.535 28.9091V29.3693C405.535 29.6335 405.598 29.8707 405.723 30.081C405.848 30.2884 406.064 30.392 406.37 30.392C406.669 30.392 406.879 30.2884 407.001 30.081C407.126 29.8707 407.189 29.6335 407.189 29.3693V28.9091C407.189 28.6449 407.129 28.4091 407.01 28.2017C406.89 27.9915 406.677 27.8864 406.37 27.8864C406.072 27.8864 405.858 27.9915 405.727 28.2017C405.599 28.4091 405.535 28.6449 405.535 28.9091ZM404.99 36L410.99 27.2727H411.961L405.961 36H404.99Z" fill="#111827"/>
<rect y="51" width="10" height="10" rx="5" fill="#16A34A"/>
<path d="M19.0568 60V51.2727H22.0057C22.6875 51.2727 23.2472 51.3892 23.6847 51.6222C24.1222 51.8523 24.446 52.169 24.6562 52.5724C24.8665 52.9759 24.9716 53.4347 24.9716 53.9489C24.9716 54.4631 24.8665 54.919 24.6562 55.3168C24.446 55.7145 24.1236 56.027 23.6889 56.2543C23.2543 56.4787 22.6989 56.5909 22.0227 56.5909H19.6364V55.6364H21.9886C22.4545 55.6364 22.8295 55.5682 23.1136 55.4318C23.4006 55.2955 23.608 55.1023 23.7358 54.8523C23.8665 54.5994 23.9318 54.2983 23.9318 53.9489C23.9318 53.5994 23.8665 53.294 23.7358 53.0327C23.6051 52.7713 23.3963 52.5696 23.1094 52.4276C22.8224 52.2827 22.4432 52.2102 21.9716 52.2102H20.1136V60H19.0568ZM23.1648 56.0795L25.3125 60H24.0852L21.9716 56.0795H23.1648ZM30.7212 57.3239V53.4545H31.7269V60H30.7212V58.892H30.6531C30.4996 59.2244 30.261 59.5071 29.9371 59.7401C29.6133 59.9702 29.2042 60.0852 28.7099 60.0852C28.3008 60.0852 27.9371 59.9957 27.619 59.8168C27.3008 59.6349 27.0508 59.3622 26.869 58.9986C26.6871 58.6321 26.5962 58.1705 26.5962 57.6136V53.4545H27.6019V57.5455C27.6019 58.0227 27.7354 58.4034 28.0025 58.6875C28.2724 58.9716 28.6161 59.1136 29.0337 59.1136C29.2837 59.1136 29.538 59.0497 29.7965 58.9219C30.0579 58.794 30.2766 58.598 30.4528 58.3338C30.6317 58.0696 30.7212 57.733 30.7212 57.3239ZM33.5689 60V53.4545H34.5405V54.4773H34.6257C34.7621 54.1278 34.9822 53.8565 35.2862 53.6634C35.5902 53.4673 35.9553 53.3693 36.3814 53.3693C36.8132 53.3693 37.1726 53.4673 37.4595 53.6634C37.7493 53.8565 37.9751 54.1278 38.1371 54.4773H38.2053C38.3729 54.1392 38.6243 53.8707 38.9595 53.6719C39.2947 53.4702 39.6967 53.3693 40.1655 53.3693C40.7507 53.3693 41.2294 53.5526 41.6016 53.919C41.9737 54.2827 42.1598 54.8494 42.1598 55.6193V60H41.1541V55.6193C41.1541 55.1364 41.022 54.7912 40.7578 54.5838C40.4936 54.3764 40.1825 54.2727 39.8246 54.2727C39.3643 54.2727 39.0078 54.4119 38.755 54.6903C38.5021 54.9659 38.3757 55.3153 38.3757 55.7386V60H37.353V55.517C37.353 55.1449 37.2322 54.8452 36.9908 54.6179C36.7493 54.3878 36.4382 54.2727 36.0575 54.2727C35.7962 54.2727 35.5518 54.3423 35.3246 54.4815C35.1001 54.6207 34.9183 54.8139 34.7791 55.0611C34.6428 55.3054 34.5746 55.5881 34.5746 55.9091V60H33.5689ZM45.9247 60.1534C45.5099 60.1534 45.1335 60.0753 44.7955 59.919C44.4574 59.7599 44.1889 59.5312 43.9901 59.233C43.7912 58.9318 43.6918 58.5682 43.6918 58.142C43.6918 57.767 43.7656 57.4631 43.9134 57.2301C44.0611 56.9943 44.2585 56.8097 44.5057 56.6761C44.7528 56.5426 45.0256 56.4432 45.3239 56.3778C45.625 56.3097 45.9276 56.2557 46.2315 56.2159C46.6293 56.1648 46.9517 56.1264 47.1989 56.1009C47.4489 56.0724 47.6307 56.0256 47.7443 55.9602C47.8608 55.8949 47.919 55.7812 47.919 55.6193V55.5852C47.919 55.1648 47.804 54.8381 47.5739 54.6051C47.3466 54.3722 47.0014 54.2557 46.5384 54.2557C46.0582 54.2557 45.6818 54.3608 45.4091 54.571C45.1364 54.7812 44.9446 55.0057 44.8338 55.2443L43.8793 54.9034C44.0497 54.5057 44.277 54.196 44.5611 53.9744C44.848 53.75 45.1605 53.5937 45.4986 53.5057C45.8395 53.4148 46.1747 53.3693 46.5043 53.3693C46.7145 53.3693 46.956 53.3949 47.2287 53.446C47.5043 53.4943 47.7699 53.5952 48.0256 53.7486C48.2841 53.902 48.4986 54.1335 48.669 54.4432C48.8395 54.7528 48.9247 55.1676 48.9247 55.6875V60H47.919V59.1136H47.8679C47.7997 59.2557 47.6861 59.4077 47.527 59.5696C47.3679 59.7315 47.1563 59.8693 46.892 59.983C46.6278 60.0966 46.3054 60.1534 45.9247 60.1534ZM46.0781 59.25C46.4759 59.25 46.8111 59.1719 47.0838 59.0156C47.3594 58.8594 47.5668 58.6577 47.706 58.4105C47.848 58.1634 47.919 57.9034 47.919 57.6307V56.7102C47.8764 56.7614 47.7827 56.8082 47.6378 56.8509C47.4957 56.8906 47.331 56.9261 47.1435 56.9574C46.9588 56.9858 46.7784 57.0114 46.6023 57.0341C46.429 57.054 46.2884 57.071 46.1804 57.0852C45.919 57.1193 45.6747 57.1747 45.4474 57.2514C45.223 57.3253 45.0412 57.4375 44.902 57.5881C44.7656 57.7358 44.6974 57.9375 44.6974 58.1932C44.6974 58.5426 44.8267 58.8068 45.0852 58.9858C45.3466 59.1619 45.6776 59.25 46.0781 59.25ZM51.766 56.0625V60H50.7603V51.2727H51.766V54.4773H51.8512C52.0046 54.1392 52.2347 53.8707 52.5415 53.6719C52.8512 53.4702 53.2631 53.3693 53.7773 53.3693C54.2234 53.3693 54.614 53.4588 54.9492 53.6378C55.2844 53.8139 55.5444 54.0852 55.729 54.4517C55.9165 54.8153 56.0103 55.2784 56.0103 55.8409V60H55.0046V55.9091C55.0046 55.3892 54.8697 54.9872 54.5998 54.7031C54.3327 54.4162 53.962 54.2727 53.4876 54.2727C53.158 54.2727 52.8626 54.3423 52.6012 54.4815C52.3427 54.6207 52.1381 54.8239 51.9876 55.0909C51.8398 55.358 51.766 55.6818 51.766 56.0625ZM63.6967 60.1193C63.1229 60.1193 62.6286 60.0142 62.2138 59.804C61.799 59.5937 61.4794 59.3054 61.255 58.9389C61.0305 58.5724 60.9183 58.1534 60.9183 57.6818C60.9183 57.3182 60.995 56.9957 61.1484 56.7145C61.3047 56.4304 61.5192 56.1676 61.7919 55.9261C62.0675 55.6818 62.3842 55.4375 62.7422 55.1932L64.0036 54.2557C64.2507 54.0937 64.4482 53.9205 64.5959 53.7358C64.7464 53.5511 64.8217 53.3097 64.8217 53.0114C64.8217 52.7898 64.7237 52.5753 64.5277 52.3679C64.3345 52.1605 64.0803 52.0568 63.7649 52.0568C63.5433 52.0568 63.3473 52.1136 63.1768 52.2273C63.0092 52.3381 62.8771 52.4801 62.7805 52.6534C62.6868 52.8239 62.6399 53 62.6399 53.1818C62.6399 53.3864 62.6953 53.5938 62.8061 53.804C62.9197 54.0114 63.0632 54.2244 63.2365 54.4432C63.4126 54.6591 63.5945 54.8807 63.782 55.108L67.7876 60H66.5774L63.2706 56.0114C62.9638 55.642 62.6854 55.3068 62.4354 55.0057C62.1854 54.7045 61.9865 54.4077 61.8388 54.1151C61.6911 53.8224 61.6172 53.5057 61.6172 53.1648C61.6172 52.7727 61.7038 52.429 61.8771 52.1335C62.0533 51.8352 62.299 51.6037 62.6143 51.4389C62.9325 51.2713 63.3047 51.1875 63.7308 51.1875C64.1683 51.1875 64.5447 51.2727 64.8601 51.4432C65.1754 51.6108 65.4183 51.8338 65.5888 52.1122C65.7592 52.3878 65.8445 52.6875 65.8445 53.0114C65.8445 53.429 65.7408 53.7912 65.5334 54.098C65.326 54.4048 65.0433 54.6903 64.6854 54.9545L62.9467 56.25C62.5547 56.5398 62.2891 56.821 62.1499 57.0938C62.0107 57.3665 61.9411 57.5625 61.9411 57.6818C61.9411 57.9545 62.0121 58.2088 62.1541 58.4446C62.2962 58.6804 62.4964 58.8707 62.755 59.0156C63.0135 59.1605 63.3161 59.233 63.6626 59.233C63.9922 59.233 64.3132 59.1634 64.6257 59.0241C64.9382 58.8821 65.2209 58.6776 65.4737 58.4105C65.7294 58.1435 65.9311 57.8224 66.0788 57.4474C66.2294 57.0724 66.3047 56.6506 66.3047 56.1818H67.2763C67.2763 56.7614 67.2095 57.2344 67.076 57.6009C66.9425 57.9673 66.7919 58.2543 66.6243 58.4616C66.4567 58.669 66.3217 58.8239 66.2195 58.9261C66.1854 58.9687 66.1541 59.0114 66.1257 59.054C66.0973 59.0966 66.0661 59.1392 66.032 59.1818C65.7507 59.4972 65.3956 59.733 64.9666 59.8892C64.5376 60.0426 64.1143 60.1193 63.6967 60.1193ZM75.1055 60H72.4123V51.2727H75.2248C76.0714 51.2727 76.7958 51.4474 77.3981 51.7969C78.0004 52.1435 78.462 52.642 78.783 53.2926C79.104 53.9403 79.2646 54.7159 79.2646 55.6193C79.2646 56.5284 79.1026 57.3111 78.7788 57.9673C78.4549 58.6207 77.9833 59.1236 77.364 59.4759C76.7447 59.8253 75.9918 60 75.1055 60ZM73.4691 59.0625H75.0373C75.7589 59.0625 76.3569 58.9233 76.8313 58.6449C77.3058 58.3665 77.6594 57.9702 77.8924 57.456C78.1254 56.9418 78.2418 56.3295 78.2418 55.6193C78.2418 54.9148 78.1268 54.3082 77.8967 53.7997C77.6665 53.2884 77.3228 52.8963 76.8654 52.6236C76.408 52.348 75.8384 52.2102 75.1566 52.2102H73.4691V59.0625ZM82.8271 60.1534C82.4123 60.1534 82.0359 60.0753 81.6978 59.919C81.3597 59.7599 81.0913 59.5312 80.8924 59.233C80.6935 58.9318 80.5941 58.5682 80.5941 58.142C80.5941 57.767 80.668 57.4631 80.8157 57.2301C80.9634 56.9943 81.1609 56.8097 81.408 56.6761C81.6552 56.5426 81.9279 56.4432 82.2262 56.3778C82.5273 56.3097 82.8299 56.2557 83.1339 56.2159C83.5316 56.1648 83.854 56.1264 84.1012 56.1009C84.3512 56.0724 84.533 56.0256 84.6467 55.9602C84.7631 55.8949 84.8214 55.7812 84.8214 55.6193V55.5852C84.8214 55.1648 84.7063 54.8381 84.4762 54.6051C84.2489 54.3722 83.9038 54.2557 83.4407 54.2557C82.9606 54.2557 82.5842 54.3608 82.3114 54.571C82.0387 54.7812 81.8469 55.0057 81.7362 55.2443L80.7816 54.9034C80.9521 54.5057 81.1793 54.196 81.4634 53.9744C81.7504 53.75 82.0629 53.5937 82.4009 53.5057C82.7418 53.4148 83.0771 53.3693 83.4066 53.3693C83.6168 53.3693 83.8583 53.3949 84.131 53.446C84.4066 53.4943 84.6722 53.5952 84.9279 53.7486C85.1864 53.902 85.4009 54.1335 85.5714 54.4432C85.7418 54.7528 85.8271 55.1676 85.8271 55.6875V60H84.8214V59.1136H84.7702C84.7021 59.2557 84.5884 59.4077 84.4293 59.5696C84.2702 59.7315 84.0586 59.8693 83.7944 59.983C83.5302 60.0966 83.2077 60.1534 82.8271 60.1534ZM82.9805 59.25C83.3782 59.25 83.7134 59.1719 83.9862 59.0156C84.2617 58.8594 84.4691 58.6577 84.6083 58.4105C84.7504 58.1634 84.8214 57.9034 84.8214 57.6307V56.7102C84.7788 56.7614 84.685 56.8082 84.5401 56.8509C84.3981 56.8906 84.2333 56.9261 84.0458 56.9574C83.8612 56.9858 83.6808 57.0114 83.5046 57.0341C83.3313 57.054 83.1907 57.071 83.0827 57.0852C82.8214 57.1193 82.5771 57.1747 82.3498 57.2514C82.1254 57.3253 81.9435 57.4375 81.8043 57.5881C81.668 57.7358 81.5998 57.9375 81.5998 58.1932C81.5998 58.5426 81.729 58.8068 81.9876 58.9858C82.2489 59.1619 82.5799 59.25 82.9805 59.25ZM87.6626 62.4545V53.4545H88.6342V54.4943H88.7536C88.8274 54.3807 88.9297 54.2358 89.0604 54.0597C89.1939 53.8807 89.3842 53.7216 89.6314 53.5824C89.8814 53.4403 90.2195 53.3693 90.6456 53.3693C91.1967 53.3693 91.6825 53.5071 92.103 53.7827C92.5234 54.0582 92.8516 54.4489 93.0874 54.9545C93.3232 55.4602 93.4411 56.0568 93.4411 56.7443C93.4411 57.4375 93.3232 58.0384 93.0874 58.5469C92.8516 59.0526 92.5249 59.4446 92.1072 59.723C91.6896 59.9986 91.2081 60.1364 90.6626 60.1364C90.2422 60.1364 89.9055 60.0668 89.6527 59.9276C89.3999 59.7855 89.2053 59.625 89.0689 59.446C88.9325 59.2642 88.8274 59.1136 88.7536 58.9943H88.6683V62.4545H87.6626ZM88.6513 56.7273C88.6513 57.2216 88.7237 57.6577 88.8686 58.0355C89.0135 58.4105 89.2251 58.7045 89.5036 58.9176C89.782 59.1278 90.1229 59.233 90.5263 59.233C90.9467 59.233 91.2976 59.1222 91.5788 58.9006C91.8629 58.6761 92.076 58.375 92.218 57.9972C92.3629 57.6165 92.4354 57.1932 92.4354 56.7273C92.4354 56.267 92.3643 55.8523 92.2223 55.483C92.0831 55.1108 91.8714 54.8168 91.5874 54.6009C91.3061 54.3821 90.9524 54.2727 90.5263 54.2727C90.1172 54.2727 89.7734 54.3764 89.495 54.5838C89.2166 54.7884 89.0064 55.0753 88.8643 55.4446C88.7223 55.8111 88.6513 56.2386 88.6513 56.7273ZM99.1001 57.3239V53.4545H100.106V60H99.1001V58.892H99.032C98.8786 59.2244 98.6399 59.5071 98.3161 59.7401C97.9922 59.9702 97.5831 60.0852 97.0888 60.0852C96.6797 60.0852 96.3161 59.9957 95.9979 59.8168C95.6797 59.6349 95.4297 59.3622 95.2479 58.9986C95.0661 58.6321 94.9751 58.1705 94.9751 57.6136V53.4545H95.9808V57.5455C95.9808 58.0227 96.1143 58.4034 96.3814 58.6875C96.6513 58.9716 96.995 59.1136 97.4126 59.1136C97.6626 59.1136 97.9169 59.0497 98.1754 58.9219C98.4368 58.794 98.6555 58.598 98.8317 58.3338C99.0107 58.0696 99.1001 57.733 99.1001 57.3239ZM101.948 60V53.4545H102.919V54.4432H102.988C103.107 54.1193 103.323 53.8565 103.635 53.6548C103.948 53.4531 104.3 53.3523 104.692 53.3523C104.766 53.3523 104.858 53.3537 104.969 53.3565C105.08 53.3594 105.164 53.3636 105.221 53.3693V54.392C105.186 54.3835 105.108 54.3707 104.986 54.3537C104.867 54.3338 104.74 54.3239 104.607 54.3239C104.289 54.3239 104.005 54.3906 103.755 54.5241C103.507 54.6548 103.311 54.8366 103.167 55.0696C103.025 55.2997 102.953 55.5625 102.953 55.858V60H101.948Z" fill="#6B7280"/>
<path d="M394.972 51.2727V60H393.915V52.3807H393.864L391.733 53.7955V52.7216L393.915 51.2727H394.972ZM400.209 60.1193C399.709 60.1193 399.259 60.0199 398.858 59.821C398.457 59.6222 398.136 59.3494 397.895 59.0028C397.653 58.6562 397.521 58.2614 397.499 57.8182H398.521C398.561 58.2131 398.74 58.5398 399.058 58.7983C399.379 59.054 399.763 59.1818 400.209 59.1818C400.567 59.1818 400.885 59.098 401.163 58.9304C401.445 58.7628 401.665 58.5327 401.824 58.2401C401.986 57.9446 402.067 57.6108 402.067 57.2386C402.067 56.858 401.983 56.5185 401.815 56.2202C401.651 55.919 401.423 55.6818 401.134 55.5085C400.844 55.3352 400.513 55.2472 400.141 55.2443C399.874 55.2415 399.599 55.2827 399.318 55.3679C399.037 55.4503 398.805 55.5568 398.624 55.6875L397.635 55.5682L398.163 51.2727H402.697V52.2102H399.05L398.743 54.7841H398.794C398.973 54.642 399.197 54.5241 399.467 54.4304C399.737 54.3366 400.018 54.2898 400.311 54.2898C400.845 54.2898 401.321 54.4176 401.739 54.6733C402.159 54.9261 402.489 55.2727 402.727 55.7131C402.969 56.1534 403.089 56.6562 403.089 57.2216C403.089 57.7784 402.964 58.2756 402.714 58.7131C402.467 59.1477 402.126 59.4915 401.692 59.7443C401.257 59.9943 400.763 60.1193 400.209 60.1193ZM409.231 58.3636V57.9034C409.231 57.5852 409.297 57.294 409.427 57.0298C409.561 56.7628 409.754 56.5497 410.007 56.3906C410.262 56.2287 410.572 56.1477 410.936 56.1477C411.305 56.1477 411.615 56.2287 411.865 56.3906C412.115 56.5497 412.304 56.7628 412.431 57.0298C412.559 57.294 412.623 57.5852 412.623 57.9034V58.3636C412.623 58.6818 412.558 58.9744 412.427 59.2415C412.299 59.5057 412.109 59.7187 411.856 59.8807C411.606 60.0398 411.299 60.1193 410.936 60.1193C410.566 60.1193 410.255 60.0398 410.002 59.8807C409.75 59.7187 409.558 59.5057 409.427 59.2415C409.297 58.9744 409.231 58.6818 409.231 58.3636ZM410.1 57.9034V58.3636C410.1 58.6278 410.163 58.8651 410.288 59.0753C410.413 59.2827 410.629 59.3864 410.936 59.3864C411.234 59.3864 411.444 59.2827 411.566 59.0753C411.691 58.8651 411.754 58.6278 411.754 58.3636V57.9034C411.754 57.6392 411.694 57.4034 411.575 57.196C411.456 56.9858 411.243 56.8807 410.936 56.8807C410.637 56.8807 410.423 56.9858 410.292 57.196C410.164 57.4034 410.1 57.6392 410.1 57.9034ZM404.885 53.3693V52.9091C404.885 52.5909 404.95 52.2997 405.081 52.0355C405.214 51.7685 405.407 51.5554 405.66 51.3963C405.916 51.2344 406.225 51.1534 406.589 51.1534C406.958 51.1534 407.268 51.2344 407.518 51.3963C407.768 51.5554 407.957 51.7685 408.085 52.0355C408.213 52.2997 408.277 52.5909 408.277 52.9091V53.3693C408.277 53.6875 408.211 53.9801 408.081 54.2472C407.953 54.5114 407.762 54.7244 407.51 54.8864C407.26 55.0455 406.953 55.125 406.589 55.125C406.22 55.125 405.909 55.0455 405.656 54.8864C405.403 54.7244 405.211 54.5114 405.081 54.2472C404.95 53.9801 404.885 53.6875 404.885 53.3693ZM405.754 52.9091V53.3693C405.754 53.6335 405.816 53.8707 405.941 54.081C406.066 54.2884 406.282 54.392 406.589 54.392C406.887 54.392 407.098 54.2884 407.22 54.081C407.345 53.8707 407.407 53.6335 407.407 53.3693V52.9091C407.407 52.6449 407.348 52.4091 407.228 52.2017C407.109 51.9915 406.896 51.8864 406.589 51.8864C406.291 51.8864 406.076 51.9915 405.946 52.2017C405.818 52.4091 405.754 52.6449 405.754 52.9091ZM405.208 60L411.208 51.2727H412.18L406.18 60H405.208Z" fill="#111827"/>
<rect y="75" width="10" height="10" rx="5" fill="#8B5CF6"/>
<path d="M19.0568 84V75.2727H20.1136V79.6023H20.2159L24.1364 75.2727H25.517L21.8523 79.2102L25.517 84H24.2386L21.2045 79.9432L20.1136 81.1705V84H19.0568ZM29.0124 84.1364C28.3817 84.1364 27.8377 83.9972 27.3803 83.7188C26.9258 83.4375 26.5749 83.0455 26.3278 82.5426C26.0835 82.0369 25.9613 81.4489 25.9613 80.7784C25.9613 80.108 26.0835 79.517 26.3278 79.0057C26.5749 78.4915 26.9187 78.0909 27.359 77.804C27.8022 77.5142 28.3192 77.3693 28.9102 77.3693C29.2511 77.3693 29.5877 77.4261 29.9201 77.5398C30.2525 77.6534 30.555 77.8381 30.8278 78.0938C31.1005 78.3466 31.3178 78.6818 31.4798 79.0994C31.6417 79.517 31.7227 80.0312 31.7227 80.642V81.0682H26.6772V80.1989H30.6999C30.6999 79.8295 30.6261 79.5 30.4783 79.2102C30.3335 78.9205 30.1261 78.6918 29.8562 78.5241C29.5891 78.3565 29.2738 78.2727 28.9102 78.2727C28.5096 78.2727 28.163 78.3722 27.8704 78.571C27.5806 78.767 27.3576 79.0227 27.2013 79.3381C27.0451 79.6534 26.967 79.9915 26.967 80.3523V80.9318C26.967 81.4261 27.0522 81.8452 27.2227 82.1889C27.396 82.5298 27.636 82.7898 27.9428 82.9688C28.2496 83.1449 28.6062 83.233 29.0124 83.233C29.2766 83.233 29.5153 83.196 29.7283 83.1222C29.9442 83.0455 30.1303 82.9318 30.2866 82.7812C30.4428 82.6278 30.5636 82.4375 30.6488 82.2102L31.6204 82.483C31.5181 82.8125 31.3462 83.1023 31.1048 83.3523C30.8633 83.5994 30.565 83.7926 30.2099 83.9318C29.8548 84.0682 29.4556 84.1364 29.0124 84.1364ZM35.9116 84.1364C35.2979 84.1364 34.7695 83.9915 34.3263 83.7017C33.8832 83.4119 33.5423 83.0128 33.3036 82.5043C33.065 81.9957 32.9457 81.4148 32.9457 80.7614C32.9457 80.0966 33.0678 79.5099 33.3121 79.0014C33.5593 78.4901 33.9031 78.0909 34.3434 77.804C34.7866 77.5142 35.3036 77.3693 35.8945 77.3693C36.3548 77.3693 36.7695 77.4545 37.1388 77.625C37.5082 77.7955 37.8107 78.0341 38.0465 78.3409C38.2823 78.6477 38.4286 79.0057 38.4854 79.4148H37.4798C37.4031 79.1165 37.2326 78.8523 36.9684 78.6222C36.707 78.3892 36.3548 78.2727 35.9116 78.2727C35.5195 78.2727 35.1758 78.375 34.8803 78.5795C34.5877 78.7812 34.359 79.0668 34.1942 79.4361C34.0323 79.8026 33.9513 80.233 33.9513 80.7273C33.9513 81.233 34.0309 81.6733 34.19 82.0483C34.3519 82.4233 34.5792 82.7145 34.8718 82.9219C35.1673 83.1293 35.5138 83.233 35.9116 83.233C36.1729 83.233 36.4102 83.1875 36.6232 83.0966C36.8363 83.0057 37.0167 82.875 37.1644 82.7045C37.3121 82.5341 37.4173 82.3295 37.4798 82.0909H38.4854C38.4286 82.4773 38.288 82.8253 38.0636 83.1349C37.842 83.4418 37.5479 83.6861 37.1815 83.8679C36.8178 84.0469 36.3945 84.1364 35.9116 84.1364ZM41.8817 84.1534C41.467 84.1534 41.0906 84.0753 40.7525 83.919C40.4144 83.7599 40.146 83.5312 39.9471 83.233C39.7482 82.9318 39.6488 82.5682 39.6488 82.142C39.6488 81.767 39.7227 81.4631 39.8704 81.2301C40.0181 80.9943 40.2156 80.8097 40.4627 80.6761C40.7099 80.5426 40.9826 80.4432 41.2809 80.3778C41.582 80.3097 41.8846 80.2557 42.1886 80.2159C42.5863 80.1648 42.9087 80.1264 43.1559 80.1009C43.4059 80.0724 43.5877 80.0256 43.7013 79.9602C43.8178 79.8949 43.8761 79.7812 43.8761 79.6193V79.5852C43.8761 79.1648 43.761 78.8381 43.5309 78.6051C43.3036 78.3722 42.9585 78.2557 42.4954 78.2557C42.0153 78.2557 41.6388 78.3608 41.3661 78.571C41.0934 78.7812 40.9016 79.0057 40.7908 79.2443L39.8363 78.9034C40.0067 78.5057 40.234 78.196 40.5181 77.9744C40.805 77.75 41.1175 77.5937 41.4556 77.5057C41.7965 77.4148 42.1317 77.3693 42.4613 77.3693C42.6715 77.3693 42.913 77.3949 43.1857 77.446C43.4613 77.4943 43.7269 77.5952 43.9826 77.7486C44.2411 77.902 44.4556 78.1335 44.6261 78.4432C44.7965 78.7528 44.8817 79.1676 44.8817 79.6875V84H43.8761V83.1136H43.8249C43.7567 83.2557 43.6431 83.4077 43.484 83.5696C43.3249 83.7315 43.1133 83.8693 42.8491 83.983C42.5849 84.0966 42.2624 84.1534 41.8817 84.1534ZM42.0352 83.25C42.4329 83.25 42.7681 83.1719 43.0408 83.0156C43.3164 82.8594 43.5238 82.6577 43.663 82.4105C43.805 82.1634 43.8761 81.9034 43.8761 81.6307V80.7102C43.8335 80.7614 43.7397 80.8082 43.5948 80.8509C43.4528 80.8906 43.288 80.9261 43.1005 80.9574C42.9158 80.9858 42.7354 81.0114 42.5593 81.0341C42.386 81.054 42.2454 81.071 42.1374 81.0852C41.8761 81.1193 41.6317 81.1747 41.4045 81.2514C41.18 81.3253 40.9982 81.4375 40.859 81.5881C40.7227 81.7358 40.6545 81.9375 40.6545 82.1932C40.6545 82.5426 40.7837 82.8068 41.0423 82.9858C41.3036 83.1619 41.6346 83.25 42.0352 83.25ZM47.723 80.0625V84H46.7173V77.4545H47.6889V78.4773H47.7741C47.9276 78.1449 48.1605 77.8778 48.473 77.6761C48.7855 77.4716 49.1889 77.3693 49.6832 77.3693C50.1264 77.3693 50.5142 77.4602 50.8466 77.642C51.179 77.821 51.4375 78.0938 51.6222 78.4602C51.8068 78.8239 51.8991 79.2841 51.8991 79.8409V84H50.8935V79.9091C50.8935 79.3949 50.7599 78.9943 50.4929 78.7074C50.2259 78.4176 49.8594 78.2727 49.3935 78.2727C49.0724 78.2727 48.7855 78.3423 48.5327 78.4815C48.2827 78.6207 48.0852 78.8239 47.9403 79.0909C47.7955 79.358 47.723 79.6818 47.723 80.0625ZM56.5835 77.4545V78.3068H53.1914V77.4545H56.5835ZM54.18 75.8864H55.1857V82.125C55.1857 82.4091 55.2269 82.6222 55.3093 82.7642C55.3945 82.9034 55.5025 82.9972 55.6332 83.0455C55.7667 83.0909 55.9073 83.1136 56.055 83.1136C56.1658 83.1136 56.2567 83.108 56.3278 83.0966C56.3988 83.0824 56.4556 83.071 56.4982 83.0625L56.7028 83.9659C56.6346 83.9915 56.5394 84.017 56.4173 84.0426C56.2951 84.071 56.1403 84.0852 55.9528 84.0852C55.6687 84.0852 55.3903 84.0241 55.1175 83.902C54.8477 83.7798 54.6232 83.5938 54.4442 83.3438C54.2681 83.0938 54.18 82.7784 54.18 82.3977V75.8864ZM58.0962 84V77.4545H59.1019V84H58.0962ZM58.6076 76.3636C58.4116 76.3636 58.2425 76.2969 58.1005 76.1634C57.9613 76.0298 57.8917 75.8693 57.8917 75.6818C57.8917 75.4943 57.9613 75.3338 58.1005 75.2003C58.2425 75.0668 58.4116 75 58.6076 75C58.8036 75 58.9712 75.0668 59.1104 75.2003C59.2525 75.3338 59.3235 75.4943 59.3235 75.6818C59.3235 75.8693 59.2525 76.0298 59.1104 76.1634C58.9712 76.2969 58.8036 76.3636 58.6076 76.3636ZM61.8814 81.6136L61.8643 80.3693H62.0689L64.9325 77.4545H66.1768L63.1257 80.5398H63.0405L61.8814 81.6136ZM60.9439 84V75.2727H61.9496V84H60.9439ZM65.103 84L62.5462 80.7614L63.2621 80.0625L66.3814 84H65.103ZM69.3974 84.1534C68.9826 84.1534 68.6062 84.0753 68.2681 83.919C67.93 83.7599 67.6616 83.5312 67.4627 83.233C67.2638 82.9318 67.1644 82.5682 67.1644 82.142C67.1644 81.767 67.2383 81.4631 67.386 81.2301C67.5337 80.9943 67.7312 80.8097 67.9783 80.6761C68.2255 80.5426 68.4982 80.4432 68.7965 80.3778C69.0977 80.3097 69.4002 80.2557 69.7042 80.2159C70.1019 80.1648 70.4244 80.1264 70.6715 80.1009C70.9215 80.0724 71.1033 80.0256 71.217 79.9602C71.3335 79.8949 71.3917 79.7812 71.3917 79.6193V79.5852C71.3917 79.1648 71.2766 78.8381 71.0465 78.6051C70.8192 78.3722 70.4741 78.2557 70.011 78.2557C69.5309 78.2557 69.1545 78.3608 68.8817 78.571C68.609 78.7812 68.4173 79.0057 68.3065 79.2443L67.3519 78.9034C67.5224 78.5057 67.7496 78.196 68.0337 77.9744C68.3207 77.75 68.6332 77.5937 68.9712 77.5057C69.3121 77.4148 69.6474 77.3693 69.9769 77.3693C70.1871 77.3693 70.4286 77.3949 70.7013 77.446C70.9769 77.4943 71.2425 77.5952 71.4982 77.7486C71.7567 77.902 71.9712 78.1335 72.1417 78.4432C72.3121 78.7528 72.3974 79.1676 72.3974 79.6875V84H71.3917V83.1136H71.3406C71.2724 83.2557 71.1587 83.4077 70.9996 83.5696C70.8406 83.7315 70.6289 83.8693 70.3647 83.983C70.1005 84.0966 69.7781 84.1534 69.3974 84.1534ZM69.5508 83.25C69.9485 83.25 70.2837 83.1719 70.5565 83.0156C70.832 82.8594 71.0394 82.6577 71.1786 82.4105C71.3207 82.1634 71.3917 81.9034 71.3917 81.6307V80.7102C71.3491 80.7614 71.2553 80.8082 71.1104 80.8509C70.9684 80.8906 70.8036 80.9261 70.6161 80.9574C70.4315 80.9858 70.2511 81.0114 70.0749 81.0341C69.9016 81.054 69.761 81.071 69.6531 81.0852C69.3917 81.1193 69.1474 81.1747 68.9201 81.2514C68.6957 81.3253 68.5138 81.4375 68.3746 81.5881C68.2383 81.7358 68.1701 81.9375 68.1701 82.1932C68.1701 82.5426 68.2994 82.8068 68.5579 82.9858C68.8192 83.1619 69.1502 83.25 69.5508 83.25ZM75.2386 80.0625V84H74.233V77.4545H75.2045V78.4773H75.2898C75.4432 78.1449 75.6761 77.8778 75.9886 77.6761C76.3011 77.4716 76.7045 77.3693 77.1989 77.3693C77.642 77.3693 78.0298 77.4602 78.3622 77.642C78.6946 77.821 78.9531 78.0938 79.1378 78.4602C79.3224 78.8239 79.4148 79.2841 79.4148 79.8409V84H78.4091V79.9091C78.4091 79.3949 78.2756 78.9943 78.0085 78.7074C77.7415 78.4176 77.375 78.2727 76.9091 78.2727C76.5881 78.2727 76.3011 78.3423 76.0483 78.4815C75.7983 78.6207 75.6009 78.8239 75.456 79.0909C75.3111 79.358 75.2386 79.6818 75.2386 80.0625Z" fill="#6B7280"/>
<path d="M399.699 84.1193C399.114 84.1193 398.597 84.0156 398.148 83.8082C397.702 83.598 397.354 83.3097 397.104 82.9432C396.854 82.5739 396.73 82.1534 396.733 81.6818C396.73 81.3125 396.803 80.9716 396.95 80.6591C397.098 80.3437 397.3 80.081 397.555 79.8707C397.814 79.6577 398.102 79.5227 398.42 79.4659V79.4148C398.003 79.3068 397.67 79.0724 397.423 78.7116C397.176 78.348 397.054 77.9347 397.057 77.4716C397.054 77.0284 397.166 76.6321 397.393 76.2827C397.621 75.9332 397.933 75.6577 398.331 75.456C398.732 75.2543 399.188 75.1534 399.699 75.1534C400.205 75.1534 400.656 75.2543 401.054 75.456C401.452 75.6577 401.764 75.9332 401.991 76.2827C402.222 76.6321 402.338 77.0284 402.341 77.4716C402.338 77.9347 402.212 78.348 401.962 78.7116C401.714 79.0724 401.386 79.3068 400.977 79.4148V79.4659C401.293 79.5227 401.577 79.6577 401.83 79.8707C402.082 80.081 402.284 80.3437 402.435 80.6591C402.585 80.9716 402.662 81.3125 402.665 81.6818C402.662 82.1534 402.534 82.5739 402.281 82.9432C402.031 83.3097 401.683 83.598 401.237 83.8082C400.794 84.0156 400.281 84.1193 399.699 84.1193ZM399.699 83.1818C400.094 83.1818 400.435 83.1179 400.722 82.9901C401.009 82.8622 401.23 82.6818 401.386 82.4489C401.543 82.2159 401.622 81.9432 401.625 81.6307C401.622 81.3011 401.537 81.0099 401.369 80.7571C401.202 80.5043 400.973 80.3054 400.683 80.1605C400.396 80.0156 400.068 79.9432 399.699 79.9432C399.327 79.9432 398.994 80.0156 398.702 80.1605C398.412 80.3054 398.183 80.5043 398.016 80.7571C397.851 81.0099 397.77 81.3011 397.773 81.6307C397.77 81.9432 397.845 82.2159 397.999 82.4489C398.155 82.6818 398.378 82.8622 398.668 82.9901C398.957 83.1179 399.301 83.1818 399.699 83.1818ZM399.699 79.0398C400.011 79.0398 400.288 78.9773 400.53 78.8523C400.774 78.7273 400.966 78.5526 401.105 78.3281C401.244 78.1037 401.315 77.8409 401.318 77.5398C401.315 77.2443 401.246 76.9872 401.109 76.7685C400.973 76.5469 400.784 76.3764 400.543 76.2571C400.301 76.1349 400.02 76.0739 399.699 76.0739C399.372 76.0739 399.087 76.1349 398.842 76.2571C398.598 76.3764 398.409 76.5469 398.276 76.7685C398.142 76.9872 398.077 77.2443 398.08 77.5398C398.077 77.8409 398.143 78.1037 398.28 78.3281C398.419 78.5526 398.611 78.7273 398.855 78.8523C399.099 78.9773 399.381 79.0398 399.699 79.0398ZM408.747 82.3636V81.9034C408.747 81.5852 408.812 81.294 408.943 81.0298C409.076 80.7628 409.27 80.5497 409.522 80.3906C409.778 80.2287 410.088 80.1477 410.451 80.1477C410.821 80.1477 411.13 80.2287 411.38 80.3906C411.63 80.5497 411.819 80.7628 411.947 81.0298C412.075 81.294 412.139 81.5852 412.139 81.9034V82.3636C412.139 82.6818 412.074 82.9744 411.943 83.2415C411.815 83.5057 411.625 83.7187 411.372 83.8807C411.122 84.0398 410.815 84.1193 410.451 84.1193C410.082 84.1193 409.771 84.0398 409.518 83.8807C409.265 83.7187 409.074 83.5057 408.943 83.2415C408.812 82.9744 408.747 82.6818 408.747 82.3636ZM409.616 81.9034V82.3636C409.616 82.6278 409.679 82.8651 409.804 83.0753C409.929 83.2827 410.145 83.3864 410.451 83.3864C410.75 83.3864 410.96 83.2827 411.082 83.0753C411.207 82.8651 411.27 82.6278 411.27 82.3636V81.9034C411.27 81.6392 411.21 81.4034 411.091 81.196C410.971 80.9858 410.758 80.8807 410.451 80.8807C410.153 80.8807 409.939 80.9858 409.808 81.196C409.68 81.4034 409.616 81.6392 409.616 81.9034ZM404.4 77.3693V76.9091C404.4 76.5909 404.466 76.2997 404.596 76.0355C404.73 75.7685 404.923 75.5554 405.176 75.3963C405.431 75.2344 405.741 75.1534 406.105 75.1534C406.474 75.1534 406.784 75.2344 407.034 75.3963C407.284 75.5554 407.473 75.7685 407.6 76.0355C407.728 76.2997 407.792 76.5909 407.792 76.9091V77.3693C407.792 77.6875 407.727 77.9801 407.596 78.2472C407.468 78.5114 407.278 78.7244 407.025 78.8864C406.775 79.0455 406.468 79.125 406.105 79.125C405.735 79.125 405.424 79.0455 405.172 78.8864C404.919 78.7244 404.727 78.5114 404.596 78.2472C404.466 77.9801 404.4 77.6875 404.4 77.3693ZM405.27 76.9091V77.3693C405.27 77.6335 405.332 77.8707 405.457 78.081C405.582 78.2884 405.798 78.392 406.105 78.392C406.403 78.392 406.613 78.2884 406.735 78.081C406.86 77.8707 406.923 77.6335 406.923 77.3693V76.9091C406.923 76.6449 406.863 76.4091 406.744 76.2017C406.625 75.9915 406.412 75.8864 406.105 75.8864C405.806 75.8864 405.592 75.9915 405.461 76.2017C405.333 76.4091 405.27 76.6449 405.27 76.9091ZM404.724 84L410.724 75.2727H411.696L405.696 84H404.724Z" fill="#111827"/>
<rect y="99" width="10" height="10" rx="5" fill="#6B7280"/>
<path d="M19.0568 108V99.2727H20.1136V107.062H24.1705V108H19.0568ZM27.5966 108.153C27.1818 108.153 26.8054 108.075 26.4673 107.919C26.1293 107.76 25.8608 107.531 25.6619 107.233C25.4631 106.932 25.3636 106.568 25.3636 106.142C25.3636 105.767 25.4375 105.463 25.5852 105.23C25.733 104.994 25.9304 104.81 26.1776 104.676C26.4247 104.543 26.6974 104.443 26.9957 104.378C27.2969 104.31 27.5994 104.256 27.9034 104.216C28.3011 104.165 28.6236 104.126 28.8707 104.101C29.1207 104.072 29.3026 104.026 29.4162 103.96C29.5327 103.895 29.5909 103.781 29.5909 103.619V103.585C29.5909 103.165 29.4759 102.838 29.2457 102.605C29.0185 102.372 28.6733 102.256 28.2102 102.256C27.7301 102.256 27.3537 102.361 27.081 102.571C26.8082 102.781 26.6165 103.006 26.5057 103.244L25.5511 102.903C25.7216 102.506 25.9489 102.196 26.233 101.974C26.5199 101.75 26.8324 101.594 27.1705 101.506C27.5114 101.415 27.8466 101.369 28.1761 101.369C28.3864 101.369 28.6278 101.395 28.9006 101.446C29.1761 101.494 29.4418 101.595 29.6974 101.749C29.956 101.902 30.1705 102.134 30.3409 102.443C30.5114 102.753 30.5966 103.168 30.5966 103.688V108H29.5909V107.114H29.5398C29.4716 107.256 29.358 107.408 29.1989 107.57C29.0398 107.732 28.8281 107.869 28.5639 107.983C28.2997 108.097 27.9773 108.153 27.5966 108.153ZM27.75 107.25C28.1477 107.25 28.483 107.172 28.7557 107.016C29.0313 106.859 29.2386 106.658 29.3778 106.411C29.5199 106.163 29.5909 105.903 29.5909 105.631V104.71C29.5483 104.761 29.4545 104.808 29.3097 104.851C29.1676 104.891 29.0028 104.926 28.8153 104.957C28.6307 104.986 28.4503 105.011 28.2741 105.034C28.1009 105.054 27.9602 105.071 27.8523 105.085C27.5909 105.119 27.3466 105.175 27.1193 105.251C26.8949 105.325 26.7131 105.437 26.5739 105.588C26.4375 105.736 26.3693 105.937 26.3693 106.193C26.3693 106.543 26.4986 106.807 26.7571 106.986C27.0185 107.162 27.3494 107.25 27.75 107.25ZM32.4322 108V101.455H33.4379V108H32.4322ZM32.9435 100.364C32.7475 100.364 32.5785 100.297 32.4364 100.163C32.2972 100.03 32.2276 99.8693 32.2276 99.6818C32.2276 99.4943 32.2972 99.3338 32.4364 99.2003C32.5785 99.0668 32.7475 99 32.9435 99C33.1396 99 33.3072 99.0668 33.4464 99.2003C33.5884 99.3338 33.6594 99.4943 33.6594 99.6818C33.6594 99.8693 33.5884 100.03 33.4464 100.163C33.3072 100.297 33.1396 100.364 32.9435 100.364ZM36.2855 104.062V108H35.2798V101.455H36.2514V102.477H36.3366C36.4901 102.145 36.723 101.878 37.0355 101.676C37.348 101.472 37.7514 101.369 38.2457 101.369C38.6889 101.369 39.0767 101.46 39.4091 101.642C39.7415 101.821 40 102.094 40.1847 102.46C40.3693 102.824 40.4616 103.284 40.4616 103.841V108H39.456V103.909C39.456 103.395 39.3224 102.994 39.0554 102.707C38.7884 102.418 38.4219 102.273 37.956 102.273C37.6349 102.273 37.348 102.342 37.0952 102.482C36.8452 102.621 36.6477 102.824 36.5028 103.091C36.358 103.358 36.2855 103.682 36.2855 104.062ZM43.305 104.062V108H42.2994V101.455H43.271V102.477H43.3562C43.5096 102.145 43.7425 101.878 44.055 101.676C44.3675 101.472 44.771 101.369 45.2653 101.369C45.7085 101.369 46.0962 101.46 46.4286 101.642C46.761 101.821 47.0195 102.094 47.2042 102.46C47.3888 102.824 47.4812 103.284 47.4812 103.841V108H46.4755V103.909C46.4755 103.395 46.342 102.994 46.0749 102.707C45.8079 102.418 45.4414 102.273 44.9755 102.273C44.6545 102.273 44.3675 102.342 44.1147 102.482C43.8647 102.621 43.6673 102.824 43.5224 103.091C43.3775 103.358 43.305 103.682 43.305 104.062ZM49.7322 110.455C49.5618 110.455 49.4098 110.44 49.2763 110.412C49.1428 110.386 49.0504 110.361 48.9993 110.335L49.255 109.449C49.4993 109.511 49.7152 109.534 49.9027 109.517C50.0902 109.5 50.2564 109.416 50.4013 109.266C50.549 109.118 50.6839 108.878 50.8061 108.545L50.9936 108.034L48.5732 101.455H49.6641L51.4709 106.67H51.5391L53.3459 101.455H54.4368L51.6584 108.955C51.5334 109.293 51.3786 109.572 51.1939 109.794C51.0092 110.018 50.7947 110.185 50.5504 110.293C50.3089 110.401 50.0362 110.455 49.7322 110.455ZM57.4911 108.153C57.0763 108.153 56.6999 108.075 56.3619 107.919C56.0238 107.76 55.7553 107.531 55.5565 107.233C55.3576 106.932 55.2582 106.568 55.2582 106.142C55.2582 105.767 55.332 105.463 55.4798 105.23C55.6275 104.994 55.8249 104.81 56.0721 104.676C56.3192 104.543 56.592 104.443 56.8903 104.378C57.1914 104.31 57.494 104.256 57.7979 104.216C58.1957 104.165 58.5181 104.126 58.7653 104.101C59.0153 104.072 59.1971 104.026 59.3107 103.96C59.4272 103.895 59.4854 103.781 59.4854 103.619V103.585C59.4854 103.165 59.3704 102.838 59.1403 102.605C58.913 102.372 58.5678 102.256 58.1048 102.256C57.6246 102.256 57.2482 102.361 56.9755 102.571C56.7028 102.781 56.511 103.006 56.4002 103.244L55.4457 102.903C55.6161 102.506 55.8434 102.196 56.1275 101.974C56.4144 101.75 56.7269 101.594 57.065 101.506C57.4059 101.415 57.7411 101.369 58.0707 101.369C58.2809 101.369 58.5224 101.395 58.7951 101.446C59.0707 101.494 59.3363 101.595 59.592 101.749C59.8505 101.902 60.065 102.134 60.2354 102.443C60.4059 102.753 60.4911 103.168 60.4911 103.688V108H59.4854V107.114H59.4343C59.3661 107.256 59.2525 107.408 59.0934 107.57C58.9343 107.732 58.7227 107.869 58.4585 107.983C58.1942 108.097 57.8718 108.153 57.4911 108.153ZM57.6445 107.25C58.0423 107.25 58.3775 107.172 58.6502 107.016C58.9258 106.859 59.1332 106.658 59.2724 106.411C59.4144 106.163 59.4854 105.903 59.4854 105.631V104.71C59.4428 104.761 59.3491 104.808 59.2042 104.851C59.0621 104.891 58.8974 104.926 58.7099 104.957C58.5252 104.986 58.3448 105.011 58.1687 105.034C57.9954 105.054 57.8548 105.071 57.7468 105.085C57.4854 105.119 57.2411 105.175 57.0138 105.251C56.7894 105.325 56.6076 105.437 56.4684 105.588C56.332 105.736 56.2638 105.937 56.2638 106.193C56.2638 106.543 56.3931 106.807 56.6516 106.986C56.913 107.162 57.244 107.25 57.6445 107.25Z" fill="#6B7280"/>
<path d="M396.699 106.21V105.341L400.534 99.2727H401.165V100.619H400.739L397.841 105.205V105.273H403.006V106.21H396.699ZM400.807 108V105.946V105.541V99.2727H401.812V108H400.807ZM409.051 106.364V105.903C409.051 105.585 409.117 105.294 409.248 105.03C409.381 104.763 409.574 104.55 409.827 104.391C410.083 104.229 410.392 104.148 410.756 104.148C411.125 104.148 411.435 104.229 411.685 104.391C411.935 104.55 412.124 104.763 412.252 105.03C412.38 105.294 412.444 105.585 412.444 105.903V106.364C412.444 106.682 412.378 106.974 412.248 107.241C412.12 107.506 411.929 107.719 411.676 107.881C411.426 108.04 411.12 108.119 410.756 108.119C410.387 108.119 410.076 108.04 409.823 107.881C409.57 107.719 409.378 107.506 409.248 107.241C409.117 106.974 409.051 106.682 409.051 106.364ZM409.921 105.903V106.364C409.921 106.628 409.983 106.865 410.108 107.075C410.233 107.283 410.449 107.386 410.756 107.386C411.054 107.386 411.265 107.283 411.387 107.075C411.512 106.865 411.574 106.628 411.574 106.364V105.903C411.574 105.639 411.515 105.403 411.395 105.196C411.276 104.986 411.063 104.881 410.756 104.881C410.458 104.881 410.243 104.986 410.113 105.196C409.985 105.403 409.921 105.639 409.921 105.903ZM404.705 101.369V100.909C404.705 100.591 404.77 100.3 404.901 100.036C405.034 99.7685 405.228 99.5554 405.48 99.3963C405.736 99.2344 406.046 99.1534 406.409 99.1534C406.779 99.1534 407.088 99.2344 407.338 99.3963C407.588 99.5554 407.777 99.7685 407.905 100.036C408.033 100.3 408.097 100.591 408.097 100.909V101.369C408.097 101.687 408.032 101.98 407.901 102.247C407.773 102.511 407.583 102.724 407.33 102.886C407.08 103.045 406.773 103.125 406.409 103.125C406.04 103.125 405.729 103.045 405.476 102.886C405.223 102.724 405.032 102.511 404.901 102.247C404.77 101.98 404.705 101.687 404.705 101.369ZM405.574 100.909V101.369C405.574 101.634 405.637 101.871 405.762 102.081C405.887 102.288 406.103 102.392 406.409 102.392C406.708 102.392 406.918 102.288 407.04 102.081C407.165 101.871 407.228 101.634 407.228 101.369V100.909C407.228 100.645 407.168 100.409 407.049 100.202C406.929 99.9915 406.716 99.8864 406.409 99.8864C406.111 99.8864 405.897 99.9915 405.766 100.202C405.638 100.409 405.574 100.645 405.574 100.909ZM405.029 108L411.029 99.2727H412L406 108H405.029Z" fill="#111827"/>
</svg>
