<svg width="414" height="196" viewBox="0 0 414 196" fill="none" xmlns="http://www.w3.org/2000/svg">
<path d="M282 106C282 88.9012 276.157 72.3156 265.44 58.9921C254.723 45.6685 239.775 36.4071 223.073 32.7426C206.371 29.0782 188.919 31.2307 173.608 38.8435C158.298 46.4564 146.048 59.0723 138.889 74.6006L161.593 85.0671C166.365 74.7149 174.532 66.3043 184.739 61.2291C194.946 56.1539 206.581 54.7188 217.715 57.1618C228.85 59.6048 238.815 65.7791 245.96 74.6614C253.105 83.5437 257 94.6008 257 106H282Z" fill="#1A73E8" stroke="white"/>
<path d="M137.339 78.208C133.42 88.0317 131.623 98.5732 132.066 109.14C132.509 119.708 135.182 130.062 139.909 139.523C144.637 148.984 151.312 157.339 159.496 164.038C167.681 170.737 177.19 175.629 187.399 178.393L193.933 154.262C187.127 152.419 180.787 149.158 175.331 144.692C169.875 140.226 165.424 134.656 162.273 128.349C159.121 122.041 157.339 115.138 157.044 108.094C156.749 101.049 157.947 94.021 160.56 87.4719L137.339 78.208Z" fill="#F97316" stroke="white"/>
<path d="M191.215 179.32C202.299 181.706 213.78 181.548 224.795 178.858C235.809 176.168 246.07 171.016 254.807 163.788L238.871 144.525C233.047 149.344 226.206 152.779 218.863 154.572C211.52 156.365 203.866 156.471 196.476 154.88L191.215 179.32Z" fill="#16A34A" stroke="white"/>
<path d="M257.766 161.207C266.673 153.016 273.467 142.791 277.566 131.405L254.044 122.937C251.311 130.527 246.782 137.344 240.844 142.804L257.766 161.207Z" fill="#8B5CF6" stroke="white"/>
<path d="M278.799 127.678C280.541 121.906 281.582 115.946 281.897 109.926L256.931 108.617C256.721 112.631 256.028 116.604 254.866 120.452L278.799 127.678Z" fill="#6B7280" stroke="white"/>
</svg>
