<svg width="616" height="176" viewBox="0 0 616 176" fill="none" xmlns="http://www.w3.org/2000/svg">
<rect width="616" height="176" fill="url(#paint0_linear_4_273)"/>
<path d="M25.233 60V49.8182H31.3778V50.9119H26.4659V54.3523H31.0597V55.446H26.4659V58.9062H31.4574V60H25.233ZM34.6143 49.8182V60H33.4411V49.8182H34.6143ZM39.965 60.1591C39.2292 60.1591 38.5945 59.9967 38.0609 59.6719C37.5306 59.3438 37.1213 58.8864 36.8329 58.2997C36.5479 57.7098 36.4054 57.0237 36.4054 56.2415C36.4054 55.4593 36.5479 54.7699 36.8329 54.1733C37.1213 53.5734 37.5223 53.1061 38.036 52.7713C38.5531 52.4332 39.1563 52.2642 39.8457 52.2642C40.2434 52.2642 40.6362 52.3305 41.024 52.4631C41.4118 52.5956 41.7647 52.8111 42.0829 53.1094C42.4011 53.4044 42.6547 53.7955 42.8436 54.2827C43.0325 54.7699 43.127 55.3698 43.127 56.0824V56.5795H37.2406V55.5653H41.9338C41.9338 55.1345 41.8476 54.75 41.6752 54.4119C41.5062 54.0739 41.2643 53.8071 40.9494 53.6115C40.6378 53.416 40.2699 53.3182 39.8457 53.3182C39.3784 53.3182 38.974 53.4342 38.6326 53.6662C38.2946 53.8949 38.0344 54.1932 37.8521 54.5611C37.6698 54.929 37.5787 55.3234 37.5787 55.7443V56.4205C37.5787 56.9972 37.6781 57.486 37.877 57.8871C38.0791 58.2848 38.3592 58.5881 38.7172 58.7969C39.0751 59.0024 39.4911 59.1051 39.965 59.1051C40.2733 59.1051 40.5517 59.062 40.8002 58.9759C41.0521 58.8864 41.2692 58.7538 41.4515 58.5781C41.6338 58.3991 41.7747 58.1771 41.8741 57.9119L43.0076 58.2301C42.8883 58.6146 42.6878 58.9527 42.4061 59.2443C42.1243 59.5327 41.7763 59.758 41.362 59.9205C40.9477 60.0795 40.4821 60.1591 39.965 60.1591ZM46.0055 57.2159L45.9856 55.7642H46.2243L49.5652 52.3636H51.0169L47.4572 55.9631H47.3578L46.0055 57.2159ZM44.9118 60V49.8182H46.085V60H44.9118ZM49.764 60L46.7811 56.2216L47.6163 55.4062L51.2555 60H49.764ZM55.848 52.3636V53.358H51.8906V52.3636H55.848ZM53.044 50.5341H54.2173V57.8125C54.2173 58.1439 54.2654 58.3925 54.3615 58.5582C54.4609 58.7206 54.5869 58.83 54.7393 58.8864C54.8951 58.9394 55.0592 58.9659 55.2315 58.9659C55.3608 58.9659 55.4669 58.9593 55.5497 58.946C55.6326 58.9295 55.6989 58.9162 55.7486 58.9062L55.9872 59.9602C55.9077 59.9901 55.7966 60.0199 55.6541 60.0497C55.5116 60.0829 55.331 60.0994 55.1122 60.0994C54.7808 60.0994 54.456 60.0282 54.1378 59.8857C53.8229 59.7431 53.5611 59.526 53.3523 59.2344C53.1468 58.9427 53.044 58.5748 53.044 58.1307V50.5341ZM57.6129 60V52.3636H58.7464V53.517H58.826C58.9652 53.1392 59.2171 52.8326 59.5817 52.5973C59.9463 52.362 60.3572 52.2443 60.8146 52.2443C60.9008 52.2443 61.0085 52.246 61.1378 52.2493C61.267 52.2526 61.3648 52.2576 61.4311 52.2642V53.4574C61.3913 53.4474 61.3002 53.4325 61.1577 53.4126C61.0185 53.3894 60.871 53.3778 60.7152 53.3778C60.344 53.3778 60.0125 53.4557 59.7209 53.6115C59.4325 53.764 59.2038 53.9761 59.0348 54.2479C58.8691 54.5163 58.7862 54.8229 58.7862 55.1676V60H57.6129ZM65.6918 60.1591C65.0024 60.1591 64.3975 59.995 63.8771 59.6669C63.3601 59.3388 62.9557 58.8797 62.6641 58.2898C62.3757 57.6998 62.2315 57.0104 62.2315 56.2216C62.2315 55.4261 62.3757 54.7318 62.6641 54.1385C62.9557 53.5452 63.3601 53.0845 63.8771 52.7564C64.3975 52.4283 65.0024 52.2642 65.6918 52.2642C66.3812 52.2642 66.9844 52.4283 67.5014 52.7564C68.0218 53.0845 68.4261 53.5452 68.7145 54.1385C69.0062 54.7318 69.152 55.4261 69.152 56.2216C69.152 57.0104 69.0062 57.6998 68.7145 58.2898C68.4261 58.8797 68.0218 59.3388 67.5014 59.6669C66.9844 59.995 66.3812 60.1591 65.6918 60.1591ZM65.6918 59.1051C66.2154 59.1051 66.6463 58.9709 66.9844 58.7024C67.3224 58.4339 67.5727 58.081 67.7351 57.6435C67.8975 57.206 67.9787 56.732 67.9787 56.2216C67.9787 55.7112 67.8975 55.2356 67.7351 54.7947C67.5727 54.3539 67.3224 53.9976 66.9844 53.7259C66.6463 53.4541 66.2154 53.3182 65.6918 53.3182C65.1681 53.3182 64.7372 53.4541 64.3991 53.7259C64.0611 53.9976 63.8108 54.3539 63.6484 54.7947C63.486 55.2356 63.4048 55.7112 63.4048 56.2216C63.4048 56.732 63.486 57.206 63.6484 57.6435C63.8108 58.081 64.0611 58.4339 64.3991 58.7024C64.7372 58.9709 65.1681 59.1051 65.6918 59.1051ZM72.1163 55.4062V60H70.943V52.3636H72.0765V53.5568H72.176C72.3549 53.169 72.6267 52.8575 72.9913 52.6222C73.3559 52.3835 73.8265 52.2642 74.4032 52.2642C74.9203 52.2642 75.3727 52.3703 75.7605 52.5824C76.1483 52.7912 76.4499 53.1094 76.6653 53.5369C76.8807 53.9612 76.9885 54.4981 76.9885 55.1477V60H75.8152V55.2273C75.8152 54.6274 75.6594 54.16 75.3478 53.8253C75.0363 53.4872 74.6087 53.3182 74.0652 53.3182C73.6906 53.3182 73.3559 53.3994 73.0609 53.5618C72.7692 53.7242 72.5389 53.9612 72.3699 54.2727C72.2008 54.5843 72.1163 54.9621 72.1163 55.4062ZM79.1325 60V52.3636H80.3058V60H79.1325ZM79.729 51.0909C79.5004 51.0909 79.3031 51.013 79.1374 50.8572C78.975 50.7015 78.8938 50.5142 78.8938 50.2955C78.8938 50.0767 78.975 49.8894 79.1374 49.7337C79.3031 49.5779 79.5004 49.5 79.729 49.5C79.9577 49.5 80.1533 49.5779 80.3157 49.7337C80.4814 49.8894 80.5643 50.0767 80.5643 50.2955C80.5643 50.5142 80.4814 50.7015 80.3157 50.8572C80.1533 51.013 79.9577 51.0909 79.729 51.0909ZM83.5485 57.2159L83.5286 55.7642H83.7672L87.1081 52.3636H88.5598L85.0002 55.9631H84.9007L83.5485 57.2159ZM82.4547 60V49.8182H83.628V60H82.4547ZM87.307 60L84.324 56.2216L85.1593 55.4062L88.7985 60H87.307ZM94.1665 60V49.8182H97.6069C98.4057 49.8182 99.0586 49.9624 99.5657 50.2507C100.076 50.5357 100.454 50.9219 100.699 51.4091C100.944 51.8963 101.067 52.4399 101.067 53.0398C101.067 53.6397 100.944 54.1849 100.699 54.6754C100.457 55.166 100.083 55.5571 99.5756 55.8487C99.0685 56.1371 98.4189 56.2812 97.6268 56.2812H95.1609V55.1875H97.587C98.1339 55.1875 98.573 55.093 98.9045 54.9041C99.2359 54.7152 99.4762 54.46 99.6254 54.1385C99.7778 53.8137 99.854 53.4474 99.854 53.0398C99.854 52.6321 99.7778 52.2675 99.6254 51.946C99.4762 51.6245 99.2343 51.3726 98.8995 51.1903C98.5647 51.0047 98.1206 50.9119 97.5671 50.9119H95.3995V60H94.1665ZM102.894 60V52.3636H104.067V60H102.894ZM103.491 51.0909C103.262 51.0909 103.065 51.013 102.899 50.8572C102.737 50.7015 102.656 50.5142 102.656 50.2955C102.656 50.0767 102.737 49.8894 102.899 49.7337C103.065 49.5779 103.262 49.5 103.491 49.5C103.719 49.5 103.915 49.5779 104.077 49.7337C104.243 49.8894 104.326 50.0767 104.326 50.2955C104.326 50.5142 104.243 50.7015 104.077 50.8572C103.915 51.013 103.719 51.0909 103.491 51.0909ZM107.39 49.8182V60H106.216V49.8182H107.39ZM109.539 60V52.3636H110.712V60H109.539ZM110.135 51.0909C109.907 51.0909 109.709 51.013 109.544 50.8572C109.381 50.7015 109.3 50.5142 109.3 50.2955C109.3 50.0767 109.381 49.8894 109.544 49.7337C109.709 49.5779 109.907 49.5 110.135 49.5C110.364 49.5 110.56 49.5779 110.722 49.7337C110.888 49.8894 110.971 50.0767 110.971 50.2955C110.971 50.5142 110.888 50.7015 110.722 50.8572C110.56 51.013 110.364 51.0909 110.135 51.0909ZM114.034 55.4062V60H112.861V49.8182H114.034V53.5568H114.134C114.313 53.1624 114.581 52.8492 114.939 52.6172C115.3 52.3819 115.781 52.2642 116.381 52.2642C116.901 52.2642 117.357 52.3686 117.748 52.5774C118.139 52.7829 118.442 53.0994 118.658 53.527C118.877 53.9512 118.986 54.4915 118.986 55.1477V60H117.813V55.2273C117.813 54.6207 117.655 54.1518 117.34 53.8203C117.029 53.4856 116.596 53.3182 116.043 53.3182C115.658 53.3182 115.314 53.3994 115.009 53.5618C114.707 53.7242 114.468 53.9612 114.293 54.2727C114.12 54.5843 114.034 54.9621 114.034 55.4062ZM123.38 60.179C122.896 60.179 122.457 60.0878 122.062 59.9055C121.668 59.7199 121.355 59.4531 121.123 59.1051C120.891 58.7538 120.775 58.3295 120.775 57.8324C120.775 57.3949 120.861 57.0402 121.033 56.7685C121.205 56.4934 121.436 56.2779 121.724 56.1222C122.012 55.9664 122.331 55.8504 122.679 55.7741C123.03 55.6946 123.383 55.6316 123.738 55.5852C124.202 55.5256 124.578 55.4808 124.866 55.451C125.158 55.4179 125.37 55.3632 125.502 55.2869C125.638 55.2107 125.706 55.0781 125.706 54.8892V54.8494C125.706 54.3589 125.572 53.9777 125.304 53.706C125.038 53.4342 124.636 53.2983 124.096 53.2983C123.535 53.2983 123.096 53.4209 122.778 53.6662C122.46 53.9115 122.236 54.1733 122.107 54.4517L120.993 54.054C121.192 53.59 121.457 53.2287 121.789 52.9702C122.123 52.7083 122.488 52.526 122.882 52.4233C123.28 52.3172 123.671 52.2642 124.056 52.2642C124.301 52.2642 124.583 52.294 124.901 52.3537C125.222 52.41 125.532 52.5277 125.831 52.7067C126.132 52.8857 126.382 53.1558 126.581 53.517C126.78 53.8783 126.88 54.3622 126.88 54.9688V60H125.706V58.9659H125.647C125.567 59.1316 125.435 59.3089 125.249 59.4979C125.063 59.6868 124.816 59.8475 124.508 59.9801C124.2 60.1127 123.824 60.179 123.38 60.179ZM123.559 59.125C124.023 59.125 124.414 59.0339 124.732 58.8516C125.053 58.6693 125.295 58.4339 125.458 58.1456C125.623 57.8572 125.706 57.554 125.706 57.2358V56.1619C125.657 56.2216 125.547 56.2763 125.378 56.326C125.212 56.3724 125.02 56.4138 124.801 56.4503C124.586 56.4834 124.376 56.5133 124.17 56.5398C123.968 56.563 123.804 56.5829 123.678 56.5994C123.373 56.6392 123.088 56.7038 122.823 56.7933C122.561 56.8795 122.349 57.0104 122.186 57.1861C122.027 57.3584 121.948 57.5937 121.948 57.892C121.948 58.2997 122.099 58.608 122.4 58.8168C122.705 59.0223 123.091 59.125 123.559 59.125ZM130.194 55.4062V60H129.021V52.3636H130.155V53.5568H130.254C130.433 53.169 130.705 52.8575 131.069 52.6222C131.434 52.3835 131.905 52.2642 132.481 52.2642C132.998 52.2642 133.451 52.3703 133.839 52.5824C134.226 52.7912 134.528 53.1094 134.743 53.5369C134.959 53.9612 135.067 54.4981 135.067 55.1477V60H133.893V55.2273C133.893 54.6274 133.738 54.16 133.426 53.8253C133.114 53.4872 132.687 53.3182 132.143 53.3182C131.769 53.3182 131.434 53.3994 131.139 53.5618C130.847 53.7242 130.617 53.9612 130.448 54.2727C130.279 54.5843 130.194 54.9621 130.194 55.4062Z" fill="white" fill-opacity="0.8"/>
<path d="M25.2642 86V71.4545H28.3395V77.456H34.5824V71.4545H37.6506V86H34.5824V79.9915H28.3395V86H25.2642ZM43.2401 86.206C42.544 86.206 41.9238 86.0852 41.3793 85.8438C40.8348 85.5975 40.4039 85.2353 40.0866 84.7571C39.7741 84.2741 39.6179 83.6728 39.6179 82.9531C39.6179 82.3471 39.7292 81.8381 39.9517 81.4261C40.1742 81.0142 40.4773 80.6828 40.8608 80.4318C41.2443 80.1809 41.6799 79.9915 42.1676 79.8636C42.66 79.7358 43.1761 79.6458 43.7159 79.5938C44.3504 79.5275 44.8617 79.4659 45.25 79.4091C45.6383 79.3475 45.92 79.2576 46.0952 79.1392C46.2704 79.0208 46.358 78.8456 46.358 78.6136V78.571C46.358 78.1212 46.2159 77.7732 45.9318 77.527C45.6525 77.2808 45.2547 77.1577 44.7386 77.1577C44.1941 77.1577 43.7609 77.2784 43.4389 77.5199C43.117 77.7566 42.9039 78.0549 42.7997 78.4148L40.0014 78.1875C40.1435 77.5246 40.4228 76.9517 40.8395 76.4688C41.2562 75.9811 41.7936 75.607 42.4517 75.3466C43.1146 75.0814 43.8816 74.9489 44.7528 74.9489C45.3589 74.9489 45.9389 75.0199 46.4929 75.1619C47.0516 75.304 47.5464 75.5241 47.9773 75.8224C48.4129 76.1207 48.7562 76.5043 49.0071 76.973C49.258 77.437 49.3835 77.9934 49.3835 78.642V86H46.5142V84.4872H46.429C46.2538 84.8281 46.0194 85.1288 45.7259 85.3892C45.4323 85.6449 45.0795 85.8461 44.6676 85.9929C44.2557 86.1349 43.7798 86.206 43.2401 86.206ZM44.1065 84.1179C44.5516 84.1179 44.9446 84.0303 45.2855 83.8551C45.6264 83.6752 45.8939 83.4337 46.0881 83.1307C46.2822 82.8277 46.3793 82.4844 46.3793 82.1009V80.9432C46.2846 81.0047 46.1544 81.0616 45.9886 81.1136C45.8277 81.161 45.6454 81.206 45.4418 81.2486C45.2382 81.2865 45.0346 81.322 44.831 81.3551C44.6274 81.3835 44.4427 81.4096 44.277 81.4332C43.9219 81.4853 43.6117 81.5682 43.3466 81.6818C43.0814 81.7955 42.8755 81.9493 42.7287 82.1435C42.5819 82.3329 42.5085 82.5696 42.5085 82.8537C42.5085 83.2656 42.6577 83.5805 42.956 83.7983C43.259 84.0114 43.6425 84.1179 44.1065 84.1179ZM51.7308 86V75.0909H54.6641V76.9943H54.7777C54.9766 76.3172 55.3104 75.8059 55.7791 75.4602C56.2479 75.1098 56.7876 74.9347 57.3984 74.9347C57.55 74.9347 57.7133 74.9441 57.8885 74.9631C58.0637 74.982 58.2176 75.008 58.3501 75.0412V77.7259C58.2081 77.6832 58.0116 77.6454 57.7607 77.6122C57.5097 77.5791 57.2801 77.5625 57.0717 77.5625C56.6267 77.5625 56.2289 77.6596 55.8786 77.8537C55.5329 78.0431 55.2583 78.3082 55.0547 78.6491C54.8558 78.9901 54.7564 79.383 54.7564 79.8281V86H51.7308ZM64.3214 90.3182C63.3413 90.3182 62.5008 90.1832 61.8001 89.9134C61.104 89.6482 60.5501 89.286 60.1381 88.8267C59.7262 88.3674 59.4587 87.8513 59.3356 87.2784L62.1339 86.902C62.2191 87.1198 62.354 87.3234 62.5387 87.5128C62.7234 87.7022 62.9672 87.8537 63.2702 87.9673C63.578 88.0857 63.9521 88.1449 64.3924 88.1449C65.0505 88.1449 65.5927 87.9839 66.0188 87.6619C66.4497 87.3447 66.6651 86.812 66.6651 86.0639V84.0682H66.5373C66.4047 84.3712 66.2058 84.6577 65.9407 84.9276C65.6755 85.1974 65.3346 85.4176 64.918 85.5881C64.5013 85.7585 64.0041 85.8438 63.4265 85.8438C62.6074 85.8438 61.8616 85.6544 61.1893 85.2756C60.5217 84.892 59.989 84.3073 59.5913 83.5213C59.1983 82.7306 59.0018 81.7315 59.0018 80.5241C59.0018 79.2884 59.203 78.2562 59.6055 77.4276C60.0079 76.599 60.543 75.9787 61.2106 75.5668C61.8829 75.1548 62.6192 74.9489 63.4194 74.9489C64.0302 74.9489 64.5415 75.053 64.9535 75.2614C65.3654 75.465 65.6969 75.7206 65.9478 76.0284C66.2035 76.3314 66.4 76.6297 66.5373 76.9233H66.6509V75.0909H69.6552V86.1065C69.6552 87.0346 69.4279 87.8111 68.9734 88.4361C68.5188 89.0611 67.8891 89.5298 67.0842 89.8423C66.284 90.1596 65.363 90.3182 64.3214 90.3182ZM64.3853 83.571C64.873 83.571 65.2849 83.4503 65.6211 83.2088C65.962 82.9626 66.2224 82.6122 66.4023 82.1577C66.587 81.6984 66.6793 81.1491 66.6793 80.5099C66.6793 79.8707 66.5894 79.3168 66.4094 78.848C66.2295 78.3745 65.9691 78.0076 65.6282 77.7472C65.2873 77.4867 64.873 77.3565 64.3853 77.3565C63.8881 77.3565 63.4691 77.4915 63.1282 77.7614C62.7873 78.0265 62.5292 78.3958 62.354 78.8693C62.1789 79.3428 62.0913 79.8897 62.0913 80.5099C62.0913 81.1397 62.1789 81.6842 62.354 82.1435C62.534 82.598 62.792 82.9508 63.1282 83.2017C63.4691 83.4479 63.8881 83.571 64.3853 83.571ZM75.1737 86.206C74.4776 86.206 73.8574 86.0852 73.3129 85.8438C72.7683 85.5975 72.3375 85.2353 72.0202 84.7571C71.7077 84.2741 71.5515 83.6728 71.5515 82.9531C71.5515 82.3471 71.6628 81.8381 71.8853 81.4261C72.1078 81.0142 72.4109 80.6828 72.7944 80.4318C73.1779 80.1809 73.6135 79.9915 74.1012 79.8636C74.5936 79.7358 75.1097 79.6458 75.6495 79.5938C76.284 79.5275 76.7953 79.4659 77.1836 79.4091C77.5719 79.3475 77.8536 79.2576 78.0288 79.1392C78.204 79.0208 78.2915 78.8456 78.2915 78.6136V78.571C78.2915 78.1212 78.1495 77.7732 77.8654 77.527C77.5861 77.2808 77.1883 77.1577 76.6722 77.1577C76.1277 77.1577 75.6945 77.2784 75.3725 77.5199C75.0505 77.7566 74.8375 78.0549 74.7333 78.4148L71.935 78.1875C72.0771 77.5246 72.3564 76.9517 72.7731 76.4688C73.1897 75.9811 73.7272 75.607 74.3853 75.3466C75.0482 75.0814 75.8152 74.9489 76.6864 74.9489C77.2925 74.9489 77.8725 75.0199 78.4265 75.1619C78.9852 75.304 79.48 75.5241 79.9109 75.8224C80.3465 76.1207 80.6897 76.5043 80.9407 76.973C81.1916 77.437 81.3171 77.9934 81.3171 78.642V86H78.4478V84.4872H78.3626C78.1874 84.8281 77.953 85.1288 77.6594 85.3892C77.3659 85.6449 77.0131 85.8461 76.6012 85.9929C76.1893 86.1349 75.7134 86.206 75.1737 86.206ZM76.0401 84.1179C76.4852 84.1179 76.8782 84.0303 77.2191 83.8551C77.56 83.6752 77.8275 83.4337 78.0217 83.1307C78.2158 82.8277 78.3129 82.4844 78.3129 82.1009V80.9432C78.2182 81.0047 78.088 81.0616 77.9222 81.1136C77.7612 81.161 77.579 81.206 77.3754 81.2486C77.1718 81.2865 76.9682 81.322 76.7646 81.3551C76.561 81.3835 76.3763 81.4096 76.2106 81.4332C75.8555 81.4853 75.5453 81.5682 75.2802 81.6818C75.015 81.7955 74.8091 81.9493 74.6623 82.1435C74.5155 82.3329 74.4421 82.5696 74.4421 82.8537C74.4421 83.2656 74.5913 83.5805 74.8896 83.7983C75.1926 84.0114 75.5761 84.1179 76.0401 84.1179ZM87.7962 73.9901V71.4545H99.7422V73.9901H95.2891V86H92.2493V73.9901H87.7962ZM105.042 86.2131C103.92 86.2131 102.954 85.9858 102.145 85.5312C101.34 85.072 100.719 84.4233 100.284 83.5852C99.8481 82.7424 99.6303 81.7457 99.6303 80.5952C99.6303 79.473 99.8481 78.4882 100.284 77.6406C100.719 76.7931 101.333 76.1326 102.123 75.6591C102.919 75.1856 103.851 74.9489 104.922 74.9489C105.641 74.9489 106.311 75.0649 106.931 75.2969C107.556 75.5241 108.101 75.8674 108.565 76.3267C109.034 76.786 109.398 77.3636 109.659 78.0597C109.919 78.7509 110.049 79.5606 110.049 80.4886V81.3196H100.838V79.4446H107.201C107.201 79.009 107.107 78.6231 106.917 78.2869C106.728 77.9508 106.465 77.688 106.129 77.4986C105.797 77.3045 105.412 77.2074 104.971 77.2074C104.512 77.2074 104.105 77.3139 103.75 77.527C103.399 77.7353 103.125 78.017 102.926 78.3722C102.727 78.7225 102.625 79.1132 102.62 79.544V81.3267C102.62 81.8665 102.72 82.3329 102.919 82.7259C103.122 83.1188 103.409 83.4219 103.778 83.6349C104.147 83.848 104.585 83.9545 105.092 83.9545C105.428 83.9545 105.736 83.9072 106.015 83.8125C106.295 83.7178 106.534 83.5758 106.733 83.3864C106.931 83.197 107.083 82.965 107.187 82.6903L109.985 82.875C109.843 83.5473 109.552 84.1345 109.112 84.6364C108.676 85.1335 108.113 85.5218 107.422 85.8011C106.735 86.0758 105.942 86.2131 105.042 86.2131ZM112.024 86V75.0909H114.957V76.9943H115.071C115.27 76.3172 115.603 75.8059 116.072 75.4602C116.541 75.1098 117.081 74.9347 117.691 74.9347C117.843 74.9347 118.006 74.9441 118.181 74.9631C118.357 74.982 118.511 75.008 118.643 75.0412V77.7259C118.501 77.6832 118.305 77.6454 118.054 77.6122C117.803 77.5791 117.573 77.5625 117.365 77.5625C116.92 77.5625 116.522 77.6596 116.172 77.8537C115.826 78.0431 115.551 78.3082 115.348 78.6491C115.149 78.9901 115.049 79.383 115.049 79.8281V86H112.024ZM120.264 86V71.4545H123.29V76.9233H123.382C123.515 76.6297 123.706 76.3314 123.957 76.0284C124.213 75.7206 124.545 75.465 124.952 75.2614C125.364 75.053 125.875 74.9489 126.486 74.9489C127.281 74.9489 128.015 75.1572 128.688 75.5739C129.36 75.9858 129.897 76.6084 130.3 77.4418C130.702 78.2704 130.903 79.3097 130.903 80.5597C130.903 81.7765 130.707 82.804 130.314 83.642C129.926 84.4754 129.395 85.1075 128.723 85.5384C128.055 85.9645 127.307 86.1776 126.479 86.1776C125.892 86.1776 125.392 86.0805 124.98 85.8864C124.573 85.6922 124.239 85.4484 123.979 85.1548C123.718 84.8565 123.519 84.5559 123.382 84.2528H123.247V86H120.264ZM123.226 80.5455C123.226 81.1941 123.316 81.7599 123.496 82.2429C123.676 82.7259 123.936 83.1023 124.277 83.3722C124.618 83.6373 125.032 83.7699 125.52 83.7699C126.012 83.7699 126.429 83.6349 126.77 83.3651C127.111 83.0904 127.369 82.7116 127.544 82.2287C127.724 81.741 127.814 81.1799 127.814 80.5455C127.814 79.9157 127.726 79.3617 127.551 78.8835C127.376 78.4053 127.118 78.0312 126.777 77.7614C126.436 77.4915 126.017 77.3565 125.52 77.3565C125.027 77.3565 124.611 77.4867 124.27 77.7472C123.934 78.0076 123.676 78.3769 123.496 78.8551C123.316 79.3333 123.226 79.8968 123.226 80.5455ZM136.033 86.206C135.337 86.206 134.717 86.0852 134.172 85.8438C133.628 85.5975 133.197 85.2353 132.88 84.7571C132.567 84.2741 132.411 83.6728 132.411 82.9531C132.411 82.3471 132.522 81.8381 132.745 81.4261C132.967 81.0142 133.27 80.6828 133.654 80.4318C134.037 80.1809 134.473 79.9915 134.961 79.8636C135.453 79.7358 135.969 79.6458 136.509 79.5938C137.143 79.5275 137.655 79.4659 138.043 79.4091C138.431 79.3475 138.713 79.2576 138.888 79.1392C139.063 79.0208 139.151 78.8456 139.151 78.6136V78.571C139.151 78.1212 139.009 77.7732 138.725 77.527C138.445 77.2808 138.048 77.1577 137.532 77.1577C136.987 77.1577 136.554 77.2784 136.232 77.5199C135.91 77.7566 135.697 78.0549 135.593 78.4148L132.794 78.1875C132.936 77.5246 133.216 76.9517 133.632 76.4688C134.049 75.9811 134.587 75.607 135.245 75.3466C135.908 75.0814 136.675 74.9489 137.546 74.9489C138.152 74.9489 138.732 75.0199 139.286 75.1619C139.845 75.304 140.339 75.5241 140.77 75.8224C141.206 76.1207 141.549 76.5043 141.8 76.973C142.051 77.437 142.176 77.9934 142.176 78.642V86H139.307V84.4872H139.222C139.047 84.8281 138.812 85.1288 138.519 85.3892C138.225 85.6449 137.873 85.8461 137.461 85.9929C137.049 86.1349 136.573 86.206 136.033 86.206ZM136.9 84.1179C137.345 84.1179 137.738 84.0303 138.078 83.8551C138.419 83.6752 138.687 83.4337 138.881 83.1307C139.075 82.8277 139.172 82.4844 139.172 82.1009V80.9432C139.078 81.0047 138.947 81.0616 138.782 81.1136C138.621 81.161 138.438 81.206 138.235 81.2486C138.031 81.2865 137.828 81.322 137.624 81.3551C137.42 81.3835 137.236 81.4096 137.07 81.4332C136.715 81.4853 136.405 81.5682 136.14 81.6818C135.874 81.7955 135.668 81.9493 135.522 82.1435C135.375 82.3329 135.301 82.5696 135.301 82.8537C135.301 83.2656 135.451 83.5805 135.749 83.7983C136.052 84.0114 136.435 84.1179 136.9 84.1179ZM144.524 86V75.0909H147.549V86H144.524ZM146.044 73.6847C145.594 73.6847 145.208 73.5355 144.886 73.2372C144.569 72.9342 144.41 72.572 144.41 72.1506C144.41 71.7339 144.569 71.3764 144.886 71.0781C145.208 70.7751 145.594 70.6236 146.044 70.6236C146.493 70.6236 146.877 70.7751 147.194 71.0781C147.516 71.3764 147.677 71.7339 147.677 72.1506C147.677 72.572 147.516 72.9342 147.194 73.2372C146.877 73.5355 146.493 73.6847 146.044 73.6847ZM152.714 82.8608L152.722 79.2315H153.162L156.656 75.0909H160.129L155.435 80.5739H154.717L152.714 82.8608ZM149.973 86V71.4545H152.999V86H149.973ZM156.791 86L153.581 81.2486L155.598 79.1108L160.335 86H156.791Z" fill="white"/>
<rect x="24.5" y="101.5" width="109" height="29" rx="7.5" stroke="white"/>
<path d="M38.233 121V110.818H39.4659V119.906H44.1989V121H38.233ZM45.9489 121V113.364H47.1222V121H45.9489ZM46.5455 112.091C46.3168 112.091 46.1196 112.013 45.9538 111.857C45.7914 111.701 45.7102 111.514 45.7102 111.295C45.7102 111.077 45.7914 110.889 45.9538 110.734C46.1196 110.578 46.3168 110.5 46.5455 110.5C46.7741 110.5 46.9697 110.578 47.1321 110.734C47.2978 110.889 47.3807 111.077 47.3807 111.295C47.3807 111.514 47.2978 111.701 47.1321 111.857C46.9697 112.013 46.7741 112.091 46.5455 112.091ZM50.4444 116.406V121H49.2711V110.818H50.4444V114.557H50.5439C50.7228 114.162 50.9913 113.849 51.3493 113.617C51.7105 113.382 52.1911 113.264 52.791 113.264C53.3114 113.264 53.7671 113.369 54.1582 113.577C54.5493 113.783 54.8526 114.099 55.068 114.527C55.2868 114.951 55.3961 115.491 55.3961 116.148V121H54.2228V116.227C54.2228 115.621 54.0654 115.152 53.7505 114.82C53.439 114.486 53.0065 114.318 52.4529 114.318C52.0685 114.318 51.7238 114.399 51.4189 114.562C51.1172 114.724 50.8786 114.961 50.7029 115.273C50.5306 115.584 50.4444 115.962 50.4444 116.406ZM59.7898 121.179C59.3059 121.179 58.8667 121.088 58.4723 120.906C58.0779 120.72 57.7647 120.453 57.5327 120.105C57.3007 119.754 57.1847 119.33 57.1847 118.832C57.1847 118.395 57.2708 118.04 57.4432 117.768C57.6155 117.493 57.8459 117.278 58.1342 117.122C58.4226 116.966 58.7408 116.85 59.0888 116.774C59.4401 116.695 59.7931 116.632 60.1477 116.585C60.6117 116.526 60.9879 116.481 61.2763 116.451C61.5679 116.418 61.7801 116.363 61.9126 116.287C62.0485 116.211 62.1165 116.078 62.1165 115.889V115.849C62.1165 115.359 61.9822 114.978 61.7138 114.706C61.4486 114.434 61.0459 114.298 60.5057 114.298C59.9455 114.298 59.5064 114.421 59.1882 114.666C58.87 114.911 58.6463 115.173 58.517 115.452L57.4034 115.054C57.6023 114.59 57.8674 114.229 58.1989 113.97C58.5336 113.708 58.8982 113.526 59.2926 113.423C59.6903 113.317 60.0814 113.264 60.4659 113.264C60.7112 113.264 60.9929 113.294 61.3111 113.354C61.6326 113.41 61.9425 113.528 62.2408 113.707C62.5424 113.886 62.7926 114.156 62.9915 114.517C63.1903 114.878 63.2898 115.362 63.2898 115.969V121H62.1165V119.966H62.0568C61.9773 120.132 61.8447 120.309 61.6591 120.498C61.4735 120.687 61.2266 120.848 60.9183 120.98C60.6101 121.113 60.2339 121.179 59.7898 121.179ZM59.9688 120.125C60.4328 120.125 60.8239 120.034 61.142 119.852C61.4635 119.669 61.7055 119.434 61.8679 119.146C62.0336 118.857 62.1165 118.554 62.1165 118.236V117.162C62.0668 117.222 61.9574 117.276 61.7884 117.326C61.6226 117.372 61.4304 117.414 61.2116 117.45C60.9962 117.483 60.7857 117.513 60.5803 117.54C60.3781 117.563 60.214 117.583 60.0881 117.599C59.7831 117.639 59.4981 117.704 59.233 117.793C58.9711 117.879 58.759 118.01 58.5966 118.186C58.4375 118.358 58.358 118.594 58.358 118.892C58.358 119.3 58.5088 119.608 58.8104 119.817C59.1153 120.022 59.5014 120.125 59.9688 120.125ZM68.7523 113.364V114.358H64.7949V113.364H68.7523ZM65.9483 111.534H67.1216V118.812C67.1216 119.144 67.1697 119.393 67.2658 119.558C67.3652 119.721 67.4912 119.83 67.6436 119.886C67.7994 119.939 67.9635 119.966 68.1358 119.966C68.2651 119.966 68.3712 119.959 68.454 119.946C68.5369 119.929 68.6032 119.916 68.6529 119.906L68.8915 120.96C68.812 120.99 68.7009 121.02 68.5584 121.05C68.4159 121.083 68.2353 121.099 68.0165 121.099C67.6851 121.099 67.3603 121.028 67.0421 120.886C66.7272 120.743 66.4654 120.526 66.2566 120.234C66.0511 119.943 65.9483 119.575 65.9483 119.131V111.534ZM74.6138 121V110.818H78.0542C78.8529 110.818 79.5059 110.962 80.013 111.251C80.5234 111.536 80.9012 111.922 81.1465 112.409C81.3917 112.896 81.5144 113.44 81.5144 114.04C81.5144 114.64 81.3917 115.185 81.1465 115.675C80.9045 116.166 80.53 116.557 80.0229 116.849C79.5158 117.137 78.8662 117.281 78.074 117.281H75.6081V116.188H78.0343C78.5811 116.188 79.0203 116.093 79.3517 115.904C79.6832 115.715 79.9235 115.46 80.0726 115.138C80.2251 114.814 80.3013 114.447 80.3013 114.04C80.3013 113.632 80.2251 113.268 80.0726 112.946C79.9235 112.625 79.6815 112.373 79.3468 112.19C79.012 112.005 78.5679 111.912 78.0144 111.912H75.8468V121H74.6138ZM83.3414 121V113.364H84.475V114.517H84.5545C84.6937 114.139 84.9456 113.833 85.3102 113.597C85.6748 113.362 86.0858 113.244 86.5431 113.244C86.6293 113.244 86.737 113.246 86.8663 113.249C86.9956 113.253 87.0933 113.258 87.1596 113.264V114.457C87.1199 114.447 87.0287 114.433 86.8862 114.413C86.747 114.389 86.5995 114.378 86.4437 114.378C86.0725 114.378 85.7411 114.456 85.4494 114.612C85.161 114.764 84.9324 114.976 84.7633 115.248C84.5976 115.516 84.5147 115.823 84.5147 116.168V121H83.3414ZM91.4203 121.159C90.7309 121.159 90.126 120.995 89.6056 120.667C89.0886 120.339 88.6842 119.88 88.3926 119.29C88.1042 118.7 87.96 118.01 87.96 117.222C87.96 116.426 88.1042 115.732 88.3926 115.138C88.6842 114.545 89.0886 114.085 89.6056 113.756C90.126 113.428 90.7309 113.264 91.4203 113.264C92.1097 113.264 92.7129 113.428 93.2299 113.756C93.7503 114.085 94.1547 114.545 94.443 115.138C94.7347 115.732 94.8805 116.426 94.8805 117.222C94.8805 118.01 94.7347 118.7 94.443 119.29C94.1547 119.88 93.7503 120.339 93.2299 120.667C92.7129 120.995 92.1097 121.159 91.4203 121.159ZM91.4203 120.105C91.944 120.105 92.3748 119.971 92.7129 119.702C93.051 119.434 93.3012 119.081 93.4636 118.643C93.626 118.206 93.7072 117.732 93.7072 117.222C93.7072 116.711 93.626 116.236 93.4636 115.795C93.3012 115.354 93.051 114.998 92.7129 114.726C92.3748 114.454 91.944 114.318 91.4203 114.318C90.8966 114.318 90.4657 114.454 90.1277 114.726C89.7896 114.998 89.5394 115.354 89.377 115.795C89.2145 116.236 89.1333 116.711 89.1333 117.222C89.1333 117.732 89.2145 118.206 89.377 118.643C89.5394 119.081 89.7896 119.434 90.1277 119.702C90.4657 119.971 90.8966 120.105 91.4203 120.105ZM99.555 121.159C98.9187 121.159 98.3569 120.998 97.8697 120.677C97.3825 120.352 97.0013 119.895 96.7262 119.305C96.4511 118.711 96.3136 118.01 96.3136 117.202C96.3136 116.4 96.4511 115.704 96.7262 115.114C97.0013 114.524 97.3841 114.068 97.8746 113.746C98.3652 113.425 98.9319 113.264 99.5749 113.264C100.072 113.264 100.465 113.347 100.753 113.513C101.045 113.675 101.267 113.861 101.419 114.07C101.575 114.275 101.696 114.444 101.782 114.577H101.882V110.818H103.055V121H101.922V119.827H101.782C101.696 119.966 101.574 120.142 101.414 120.354C101.255 120.562 101.028 120.75 100.733 120.915C100.438 121.078 100.046 121.159 99.555 121.159ZM99.7141 120.105C100.185 120.105 100.583 119.982 100.907 119.737C101.232 119.489 101.479 119.146 101.648 118.708C101.817 118.267 101.902 117.759 101.902 117.182C101.902 116.612 101.819 116.113 101.653 115.685C101.487 115.254 101.242 114.92 100.917 114.681C100.592 114.439 100.191 114.318 99.7141 114.318C99.217 114.318 98.8027 114.446 98.4712 114.701C98.1431 114.953 97.8962 115.296 97.7305 115.73C97.5681 116.161 97.4869 116.645 97.4869 117.182C97.4869 117.725 97.5697 118.219 97.7354 118.663C97.9045 119.104 98.1531 119.455 98.4812 119.717C98.8126 119.976 99.2236 120.105 99.7141 120.105ZM110.179 117.878V113.364H111.353V121H110.179V119.707H110.1C109.921 120.095 109.642 120.425 109.265 120.697C108.887 120.965 108.409 121.099 107.833 121.099C107.355 121.099 106.931 120.995 106.56 120.786C106.189 120.574 105.897 120.256 105.685 119.832C105.473 119.404 105.367 118.866 105.367 118.216V113.364H106.54V118.136C106.54 118.693 106.696 119.137 107.007 119.469C107.322 119.8 107.723 119.966 108.211 119.966C108.502 119.966 108.799 119.891 109.1 119.742C109.405 119.593 109.661 119.364 109.866 119.056C110.075 118.748 110.179 118.355 110.179 117.878ZM114.595 118.216L114.575 116.764H114.814L118.155 113.364H119.607L116.047 116.963H115.948L114.595 118.216ZM113.502 121V110.818H114.675V121H113.502ZM118.354 121L115.371 117.222L116.206 116.406L119.845 121H118.354Z" fill="white"/>
<defs>
<linearGradient id="paint0_linear_4_273" x1="0" y1="88" x2="616" y2="88" gradientUnits="userSpaceOnUse">
<stop stop-color="#1C398E" stop-opacity="0.8"/>
<stop offset="1" stop-color="#1C398E" stop-opacity="0"/>
</linearGradient>
</defs>
</svg>
