<svg width="14" height="15" viewBox="0 0 14 15" fill="none" xmlns="http://www.w3.org/2000/svg">
<path d="M1.33557 8.66841C1.20941 8.66884 1.08572 8.63346 0.978868 8.56639C0.872017 8.49932 0.786389 8.40331 0.731933 8.28951C0.677477 8.17571 0.656428 8.0488 0.671232 7.92351C0.686037 7.79823 0.736086 7.67971 0.815566 7.58174L7.41557 0.781741C7.46507 0.724596 7.53254 0.685979 7.60689 0.67223C7.68124 0.658481 7.75805 0.670416 7.82472 0.706077C7.89139 0.741738 7.94396 0.799006 7.97379 0.86848C8.00362 0.937954 8.00895 1.01551 7.9889 1.08841L6.7089 5.10174C6.67116 5.20276 6.65848 5.31142 6.67196 5.41841C6.68544 5.5254 6.72467 5.62753 6.78629 5.71603C6.84791 5.80452 6.93008 5.87675 7.02575 5.92652C7.12142 5.97628 7.22773 6.00209 7.33557 6.00174H12.0022C12.1284 6.00131 12.2521 6.03669 12.3589 6.10376C12.4658 6.17083 12.5514 6.26684 12.6059 6.38064C12.6603 6.49444 12.6814 6.62135 12.6666 6.74664C12.6518 6.87192 12.6017 6.99044 12.5222 7.08841L5.92223 13.8884C5.87273 13.9456 5.80526 13.9842 5.73091 13.9979C5.65656 14.0117 5.57975 13.9997 5.51308 13.9641C5.44641 13.9284 5.39384 13.8711 5.36401 13.8017C5.33418 13.7322 5.32885 13.6546 5.3489 13.5817L6.6289 9.56841C6.66664 9.46739 6.67932 9.35873 6.66584 9.25174C6.65236 9.14475 6.61313 9.04262 6.55151 8.95412C6.48989 8.86563 6.40772 8.7934 6.31205 8.74363C6.21638 8.69387 6.11007 8.66806 6.00223 8.66841H1.33557Z" stroke="white" stroke-width="1.33333" stroke-linecap="round" stroke-linejoin="round"/>
</svg>
