<svg width="16" height="16" viewBox="0 0 16 16" fill="none" xmlns="http://www.w3.org/2000/svg">
<path d="M8.4005 14.5328C9.6405 13.4622 13.3332 9.9955 13.3332 6.66683C13.3332 5.25234 12.7713 3.89579 11.7711 2.89559C10.7709 1.8954 9.41433 1.3335 7.99984 1.3335C6.58535 1.3335 5.2288 1.8954 4.2286 2.89559C3.22841 3.89579 2.6665 5.25234 2.6665 6.66683C2.6665 9.9955 6.35917 13.4622 7.59917 14.5328C7.71469 14.6197 7.85531 14.6667 7.99984 14.6667C8.14437 14.6667 8.28499 14.6197 8.4005 14.5328Z" stroke="#1A73E8" stroke-width="1.33333" stroke-linecap="round" stroke-linejoin="round"/>
<path d="M8 8.6665C9.10457 8.6665 10 7.77107 10 6.6665C10 5.56193 9.10457 4.6665 8 4.6665C6.89543 4.6665 6 5.56193 6 6.6665C6 7.77107 6.89543 8.6665 8 8.6665Z" stroke="#1A73E8" stroke-width="1.33333" stroke-linecap="round" stroke-linejoin="round"/>
</svg>
