<svg width="11" height="11" viewBox="0 0 11 11" fill="none" xmlns="http://www.w3.org/2000/svg">
<g clip-path="url(#clip0_4_981)">
<path d="M5.7755 9.99123C6.628 9.25515 9.16671 6.87181 9.16671 4.58335C9.16671 3.61089 8.7804 2.67826 8.09277 1.99063C7.40513 1.303 6.4725 0.916687 5.50004 0.916687C4.52758 0.916687 3.59495 1.303 2.90732 1.99063C2.21968 2.67826 1.83337 3.61089 1.83337 4.58335C1.83337 6.87181 4.37208 9.25515 5.22458 9.99123C5.304 10.0509 5.40068 10.0832 5.50004 10.0832C5.59941 10.0832 5.69608 10.0509 5.7755 9.99123Z" stroke="white" stroke-width="0.916667" stroke-linecap="round" stroke-linejoin="round"/>
<path d="M5.5 5.95831C6.25939 5.95831 6.875 5.3427 6.875 4.58331C6.875 3.82392 6.25939 3.20831 5.5 3.20831C4.74061 3.20831 4.125 3.82392 4.125 4.58331C4.125 5.3427 4.74061 5.95831 5.5 5.95831Z" stroke="white" stroke-width="0.916667" stroke-linecap="round" stroke-linejoin="round"/>
</g>
<defs>
<clipPath id="clip0_4_981">
<rect width="11" height="11" fill="white"/>
</clipPath>
</defs>
</svg>
