<svg width="35" height="27" viewBox="0 0 35 27" fill="none" xmlns="http://www.w3.org/2000/svg">
<path d="M2.9915 16.9517V14.1392H25.6705C26.7103 14.1392 27.6563 13.8835 28.5085 13.3722C29.3693 12.8608 30.0512 12.1747 30.554 11.3139C31.0654 10.4531 31.321 9.50284 31.321 8.46307C31.321 7.4233 31.0654 6.47727 30.554 5.625C30.0426 4.77273 29.3608 4.09091 28.5085 3.57955C27.6563 3.06818 26.7103 2.8125 25.6705 2.8125H24.3665V0H25.6705C27.2301 0 28.6492 0.383522 29.9276 1.15057C31.206 1.90909 32.2245 2.92756 32.983 4.20597C33.75 5.48438 34.1335 6.90341 34.1335 8.46307C34.1335 9.63068 33.912 10.7301 33.4688 11.7614C33.0341 12.7841 32.429 13.6875 31.6534 14.4716C30.8779 15.2472 29.9787 15.8565 28.956 16.2997C27.9333 16.7344 26.8381 16.9517 25.6705 16.9517H2.9915ZM11.4546 27L2.22921e-05 15.5455L11.4546 4.09091L13.4105 6.04688L3.89917 15.5455L13.4105 25.044L11.4546 27Z" fill="#111827"/>
</svg>
