<svg width="18" height="18" viewBox="0 0 18 18" fill="none" xmlns="http://www.w3.org/2000/svg">
<path d="M15 9.75009C15 13.5001 12.375 15.3751 9.255 16.4626C9.09162 16.518 8.91415 16.5153 8.7525 16.4551C5.625 15.3751 3 13.5001 3 9.75009V4.50009C3 4.30118 3.07902 4.11042 3.21967 3.96976C3.36032 3.82911 3.55109 3.75009 3.75 3.75009C5.25 3.75009 7.125 2.85009 8.43 1.71009C8.58889 1.57434 8.79102 1.49976 9 1.49976C9.20898 1.49976 9.41111 1.57434 9.57 1.71009C10.8825 2.85759 12.75 3.75009 14.25 3.75009C14.4489 3.75009 14.6397 3.82911 14.7803 3.96976C14.921 4.11042 15 4.30118 15 4.50009V9.75009Z" stroke="#1A73E8" stroke-width="1.5" stroke-linecap="round" stroke-linejoin="round"/>
</svg>
