<svg width="14" height="14" viewBox="0 0 14 14" fill="none" xmlns="http://www.w3.org/2000/svg">
<path d="M1.45846 4.08333C1.05096 6.00643 1.05096 7.99357 1.45846 9.91667C1.512 10.112 1.61546 10.29 1.75865 10.4331C1.90184 10.5763 2.07983 10.6798 2.27513 10.7333C5.4038 11.2518 8.59646 11.2518 11.7251 10.7333C11.9204 10.6798 12.0984 10.5763 12.2416 10.4331C12.3848 10.29 12.4882 10.112 12.5418 9.91667C12.9493 7.99357 12.9493 6.00643 12.5418 4.08333C12.4882 3.88804 12.3848 3.71004 12.2416 3.56685C12.0984 3.42366 11.9204 3.32021 11.7251 3.26667C8.59645 2.74835 5.4038 2.74835 2.27513 3.26667C2.07983 3.32021 1.90184 3.42366 1.75865 3.56685C1.61546 3.71004 1.512 3.88804 1.45846 4.08333Z" stroke="#D1D5DC" stroke-width="1.16667" stroke-linecap="round" stroke-linejoin="round"/>
<path d="M5.8335 8.75L8.75016 7L5.8335 5.25V8.75Z" stroke="#D1D5DC" stroke-width="1.16667" stroke-linecap="round" stroke-linejoin="round"/>
</svg>
