<svg width="158" height="13" viewBox="0 0 158 13" fill="none" xmlns="http://www.w3.org/2000/svg">
<path d="M0 12H12V-2.69413e-05H0V12ZM19.125 11.2793C18.483 11.2793 17.9361 11.1046 17.4844 10.7551C17.0327 10.4029 16.6875 9.89293 16.4489 9.22531C16.2102 8.55486 16.0909 7.7452 16.0909 6.79634C16.0909 5.85315 16.2102 5.04776 16.4489 4.38014C16.6903 3.70969 17.0369 3.19833 17.4886 2.84605C17.9432 2.49094 18.4886 2.31338 19.125 2.31338C19.7614 2.31338 20.3054 2.49094 20.7571 2.84605C21.2116 3.19833 21.5582 3.70969 21.7969 4.38014C22.0384 5.04776 22.1591 5.85315 22.1591 6.79634C22.1591 7.7452 22.0398 8.55486 21.8011 9.22531C21.5625 9.89293 21.2173 10.4029 20.7656 10.7551C20.3139 11.1046 19.767 11.2793 19.125 11.2793ZM19.125 10.3418C19.7614 10.3418 20.2557 10.035 20.608 9.42134C20.9602 8.8077 21.1364 7.9327 21.1364 6.79634C21.1364 6.04065 21.0554 5.39719 20.8935 4.86594C20.7344 4.33469 20.5043 3.92986 20.2031 3.65145C19.9048 3.37304 19.5455 3.23384 19.125 3.23384C18.4943 3.23384 18.0014 3.54492 17.6463 4.16708C17.2912 4.78639 17.1136 5.66281 17.1136 6.79634C17.1136 7.55202 17.1932 8.19406 17.3523 8.72247C17.5114 9.25088 17.7401 9.65287 18.0384 9.92844C18.3395 10.204 18.7017 10.3418 19.125 10.3418ZM26.5739 11.2793C25.9886 11.2793 25.4716 11.1756 25.0227 10.9682C24.5767 10.758 24.2287 10.4696 23.9787 10.1032C23.7287 9.73384 23.6051 9.31338 23.608 8.84179C23.6051 8.47247 23.6776 8.13156 23.8253 7.81906C23.973 7.50372 24.1747 7.24094 24.4304 7.03071C24.6889 6.81764 24.9773 6.6827 25.2955 6.62588V6.57475C24.8778 6.46679 24.5455 6.23242 24.2983 5.87162C24.0511 5.50798 23.929 5.09463 23.9318 4.63156C23.929 4.18838 24.0412 3.79208 24.2685 3.44264C24.4957 3.09321 24.8082 2.81764 25.206 2.61594C25.6065 2.41423 26.0625 2.31338 26.5739 2.31338C27.0795 2.31338 27.5313 2.41423 27.929 2.61594C28.3267 2.81764 28.6392 3.09321 28.8665 3.44264C29.0966 3.79208 29.2131 4.18838 29.2159 4.63156C29.2131 5.09463 29.0866 5.50798 28.8366 5.87162C28.5895 6.23242 28.2614 6.46679 27.8523 6.57475V6.62588C28.1676 6.6827 28.4517 6.81764 28.7045 7.03071C28.9574 7.24094 29.1591 7.50372 29.3097 7.81906C29.4602 8.13156 29.5369 8.47247 29.5398 8.84179C29.5369 9.31338 29.4091 9.73384 29.1562 10.1032C28.9062 10.4696 28.5582 10.758 28.1122 10.9682C27.669 11.1756 27.1563 11.2793 26.5739 11.2793ZM26.5739 10.3418C26.9688 10.3418 27.3097 10.2779 27.5966 10.15C27.8835 10.0222 28.1051 9.84179 28.2614 9.60884C28.4176 9.37588 28.4972 9.10315 28.5 8.79065C28.4972 8.46111 28.4119 8.16992 28.2443 7.91708C28.0767 7.66423 27.848 7.46537 27.5582 7.32048C27.2713 7.1756 26.9432 7.10315 26.5739 7.10315C26.2017 7.10315 25.8693 7.1756 25.5767 7.32048C25.2869 7.46537 25.0582 7.66423 24.8906 7.91708C24.7259 8.16992 24.6449 8.46111 24.6477 8.79065C24.6449 9.10315 24.7202 9.37588 24.8736 9.60884C25.0298 9.84179 25.2528 10.0222 25.5426 10.15C25.8324 10.2779 26.1761 10.3418 26.5739 10.3418ZM26.5739 6.19975C26.8864 6.19975 27.1634 6.13725 27.4048 6.01225C27.6491 5.88725 27.8409 5.71253 27.9801 5.4881C28.1193 5.26367 28.1903 5.00088 28.1932 4.69975C28.1903 4.40429 28.1207 4.14719 27.9844 3.92844C27.848 3.70685 27.6591 3.53639 27.4176 3.41708C27.1761 3.29492 26.8949 3.23384 26.5739 3.23384C26.2472 3.23384 25.9616 3.29492 25.7173 3.41708C25.473 3.53639 25.2841 3.70685 25.1506 3.92844C25.017 4.14719 24.9517 4.40429 24.9545 4.69975C24.9517 5.00088 25.0185 5.26367 25.1548 5.4881C25.294 5.71253 25.4858 5.88725 25.7301 6.01225C25.9744 6.13725 26.2557 6.19975 26.5739 6.19975ZM34.0195 11.2793C33.3775 11.2793 32.8306 11.1046 32.3789 10.7551C31.9272 10.4029 31.582 9.89293 31.3434 9.22531C31.1048 8.55486 30.9854 7.7452 30.9854 6.79634C30.9854 5.85315 31.1048 5.04776 31.3434 4.38014C31.5849 3.70969 31.9315 3.19833 32.3832 2.84605C32.8377 2.49094 33.3832 2.31338 34.0195 2.31338C34.6559 2.31338 35.1999 2.49094 35.6516 2.84605C36.1062 3.19833 36.4528 3.70969 36.6914 4.38014C36.9329 5.04776 37.0536 5.85315 37.0536 6.79634C37.0536 7.7452 36.9343 8.55486 36.6957 9.22531C36.457 9.89293 36.1119 10.4029 35.6602 10.7551C35.2085 11.1046 34.6616 11.2793 34.0195 11.2793ZM34.0195 10.3418C34.6559 10.3418 35.1502 10.035 35.5025 9.42134C35.8548 8.8077 36.0309 7.9327 36.0309 6.79634C36.0309 6.04065 35.9499 5.39719 35.788 4.86594C35.6289 4.33469 35.3988 3.92986 35.0977 3.65145C34.7994 3.37304 34.44 3.23384 34.0195 3.23384C33.3888 3.23384 32.896 3.54492 32.5408 4.16708C32.1857 4.78639 32.0082 5.66281 32.0082 6.79634C32.0082 7.55202 32.0877 8.19406 32.2468 8.72247C32.4059 9.25088 32.6346 9.65287 32.9329 9.92844C33.234 10.204 33.5962 10.3418 34.0195 10.3418ZM41.5195 11.2793C40.8775 11.2793 40.3306 11.1046 39.8789 10.7551C39.4272 10.4029 39.082 9.89293 38.8434 9.22531C38.6048 8.55486 38.4854 7.7452 38.4854 6.79634C38.4854 5.85315 38.6048 5.04776 38.8434 4.38014C39.0849 3.70969 39.4315 3.19833 39.8832 2.84605C40.3377 2.49094 40.8832 2.31338 41.5195 2.31338C42.1559 2.31338 42.6999 2.49094 43.1516 2.84605C43.6062 3.19833 43.9528 3.70969 44.1914 4.38014C44.4329 5.04776 44.5536 5.85315 44.5536 6.79634C44.5536 7.7452 44.4343 8.55486 44.1957 9.22531C43.957 9.89293 43.6119 10.4029 43.1602 10.7551C42.7085 11.1046 42.1616 11.2793 41.5195 11.2793ZM41.5195 10.3418C42.1559 10.3418 42.6502 10.035 43.0025 9.42134C43.3548 8.8077 43.5309 7.9327 43.5309 6.79634C43.5309 6.04065 43.4499 5.39719 43.288 4.86594C43.1289 4.33469 42.8988 3.92986 42.5977 3.65145C42.2994 3.37304 41.94 3.23384 41.5195 3.23384C40.8888 3.23384 40.396 3.54492 40.0408 4.16708C39.6857 4.78639 39.5082 5.66281 39.5082 6.79634C39.5082 7.55202 39.5877 8.19406 39.7468 8.72247C39.9059 9.25088 40.1346 9.65287 40.4329 9.92844C40.734 10.204 41.0962 10.3418 41.5195 10.3418ZM49.94 6.32759V7.26509H46.1218V6.32759H49.94ZM54.7607 2.4327V11.16H53.7038V3.54065H53.6527L51.522 4.95543V3.88156L53.7038 2.4327H54.7607ZM57.2706 11.16V10.3929L60.1513 7.23952C60.4893 6.8702 60.7678 6.54918 60.9865 6.27645C61.2053 6.00088 61.3672 5.74236 61.4723 5.50088C61.5803 5.25656 61.6342 5.00088 61.6342 4.73384C61.6342 4.42702 61.5604 4.16139 61.4126 3.93696C61.2678 3.71253 61.0689 3.53923 60.8161 3.41708C60.5632 3.29492 60.2791 3.23384 59.9638 3.23384C59.6286 3.23384 59.3359 3.30344 59.0859 3.44264C58.8388 3.57901 58.647 3.77077 58.5107 4.01793C58.3771 4.26509 58.3104 4.55486 58.3104 4.88725H57.3047C57.3047 4.37588 57.4226 3.92702 57.6584 3.54065C57.8942 3.15429 58.2152 2.85315 58.6214 2.63725C59.0305 2.42134 59.4893 2.31338 59.9979 2.31338C60.5092 2.31338 60.9624 2.42134 61.3572 2.63725C61.7521 2.85315 62.0618 3.14435 62.2862 3.51083C62.5107 3.8773 62.6229 4.28497 62.6229 4.73384C62.6229 5.05486 62.5646 5.36878 62.4482 5.6756C62.3345 5.97958 62.1357 6.31906 61.8516 6.69406C61.5703 7.06622 61.1797 7.52077 60.6797 8.0577L58.7195 10.1543V10.2225H62.7763V11.16H57.2706ZM67.4851 11.2793C66.9226 11.2793 66.4212 11.1827 65.9808 10.9895C65.5433 10.7963 65.1953 10.5279 64.9368 10.1841C64.6811 9.83753 64.5419 9.43554 64.5192 8.97815H65.593C65.6158 9.2594 65.7124 9.5023 65.8828 9.70685C66.0533 9.90855 66.2763 10.0648 66.5518 10.1756C66.8274 10.2864 67.1328 10.3418 67.468 10.3418C67.843 10.3418 68.1754 10.2765 68.4652 10.1458C68.755 10.0151 68.9822 9.83327 69.147 9.60031C69.3118 9.36736 69.3942 9.09747 69.3942 8.79065C69.3942 8.46963 69.3146 8.18696 69.1555 7.94264C68.9964 7.69548 68.7635 7.5023 68.4567 7.3631C68.1499 7.22389 67.7749 7.15429 67.3317 7.15429H66.6328V6.21679H67.3317C67.6783 6.21679 67.9822 6.15429 68.2436 6.02929C68.5078 5.90429 68.7138 5.72815 68.8615 5.50088C69.0121 5.27361 69.0874 5.00656 69.0874 4.69975C69.0874 4.40429 69.022 4.14719 68.8913 3.92844C68.7607 3.70969 68.576 3.53923 68.3374 3.41708C68.1016 3.29492 67.8232 3.23384 67.5021 3.23384C67.201 3.23384 66.9169 3.28923 66.6499 3.40003C66.3857 3.50798 66.1697 3.66565 66.0021 3.87304C65.8345 4.07759 65.7436 4.32475 65.7294 4.61452H64.7067C64.7237 4.15713 64.8615 3.75656 65.12 3.41281C65.3786 3.06622 65.7166 2.79634 66.1342 2.60315C66.5547 2.40997 67.0163 2.31338 67.5192 2.31338C68.0589 2.31338 68.522 2.42276 68.9084 2.64151C69.2947 2.85742 69.5916 3.14293 69.799 3.49804C70.0064 3.85315 70.1101 4.23668 70.1101 4.64861C70.1101 5.14009 69.9808 5.55912 69.7223 5.90571C69.4666 6.2523 69.1186 6.49236 68.6783 6.62588V6.69406C69.2294 6.78497 69.6598 7.01935 69.9695 7.39719C70.2791 7.77219 70.4339 8.23668 70.4339 8.79065C70.4339 9.26509 70.3047 9.69122 70.0462 10.0691C69.7905 10.4441 69.4411 10.7395 68.9979 10.9554C68.5547 11.1713 68.0504 11.2793 67.4851 11.2793ZM71.9723 9.3702V8.50088L75.8075 2.4327H76.4382V3.77929H76.0121L73.1143 8.36452V8.4327H78.2791V9.3702H71.9723ZM76.0803 11.16V9.106V8.70117V2.4327H77.0859V11.16H76.0803ZM83.6431 6.32759V7.26509H79.8249V6.32759H83.6431ZM88.1229 11.2793C87.6229 11.2793 87.1726 11.1799 86.772 10.981C86.3714 10.7821 86.0504 10.5094 85.8089 10.1628C85.5675 9.81622 85.4354 9.42134 85.4126 8.97815H86.4354C86.4751 9.37304 86.6541 9.69975 86.9723 9.95827C87.2933 10.214 87.6768 10.3418 88.1229 10.3418C88.4808 10.3418 88.799 10.258 89.0774 10.0904C89.3587 9.92276 89.5788 9.69264 89.7379 9.40003C89.8999 9.10458 89.9808 8.77077 89.9808 8.39861C89.9808 8.01793 89.897 7.67844 89.7294 7.38014C89.5646 7.07901 89.3374 6.84179 89.0476 6.6685C88.7578 6.4952 88.4268 6.40713 88.0547 6.40429C87.7876 6.40145 87.5135 6.44264 87.2322 6.52787C86.951 6.61026 86.7195 6.71679 86.5376 6.84747L85.549 6.72815L86.0774 2.4327H90.6115V3.3702H86.9638L86.657 5.94406H86.7081C86.8871 5.80202 87.1115 5.68412 87.3814 5.59037C87.6513 5.49662 87.9325 5.44975 88.2251 5.44975C88.7592 5.44975 89.2351 5.57759 89.6527 5.83327C90.0732 6.08611 90.4027 6.4327 90.6413 6.87304C90.8828 7.31338 91.0036 7.81622 91.0036 8.38156C91.0036 8.93838 90.8786 9.43554 90.6286 9.87304C90.3814 10.3077 90.0405 10.6515 89.6058 10.9043C89.1712 11.1543 88.6768 11.2793 88.1229 11.2793ZM95.5941 11.2793C95.2362 11.2736 94.8782 11.2054 94.5202 11.0747C94.1623 10.9441 93.8356 10.7239 93.5401 10.4142C93.2447 10.1017 93.0075 9.67986 92.8285 9.14861C92.6495 8.61452 92.56 7.94406 92.56 7.13725C92.56 6.36452 92.6325 5.67986 92.7773 5.08327C92.9222 4.48384 93.1325 3.97958 93.408 3.57048C93.6836 3.15855 94.016 2.84605 94.4052 2.63298C94.7972 2.41992 95.239 2.31338 95.7305 2.31338C96.2191 2.31338 96.6538 2.41139 97.0344 2.60742C97.418 2.8006 97.7305 3.07048 97.9719 3.41708C98.2134 3.76367 98.3697 4.16281 98.4407 4.61452H97.4009C97.3043 4.22247 97.1168 3.89719 96.8384 3.63867C96.56 3.38014 96.1907 3.25088 95.7305 3.25088C95.0543 3.25088 94.5217 3.54492 94.1325 4.13298C93.7461 4.72105 93.5515 5.54634 93.5487 6.60884H93.6168C93.7759 6.36736 93.9648 6.16139 94.1836 5.99094C94.4052 5.81764 94.6495 5.68412 94.9165 5.59037C95.1836 5.49662 95.4663 5.44975 95.7646 5.44975C96.2646 5.44975 96.7219 5.57475 97.1367 5.82475C97.5515 6.0719 97.8839 6.41423 98.1339 6.85173C98.3839 7.28639 98.5089 7.78497 98.5089 8.34747C98.5089 8.88725 98.3881 9.38156 98.1467 9.83043C97.9052 10.2765 97.5657 10.6316 97.1282 10.8958C96.6935 11.1571 96.1822 11.285 95.5941 11.2793ZM95.5941 10.3418C95.9521 10.3418 96.2731 10.2523 96.5572 10.0733C96.8441 9.89435 97.07 9.65429 97.2347 9.35315C97.4023 9.05202 97.4862 8.71679 97.4862 8.34747C97.4862 7.98668 97.4052 7.65855 97.2433 7.3631C97.0842 7.0648 96.864 6.82759 96.5827 6.65145C96.3043 6.47531 95.9862 6.38725 95.6282 6.38725C95.3583 6.38725 95.1069 6.44122 94.8739 6.54918C94.641 6.65429 94.4364 6.79918 94.2603 6.98384C94.087 7.1685 93.9506 7.38014 93.8512 7.61878C93.7518 7.85458 93.7021 8.10315 93.7021 8.36452C93.7021 8.71111 93.783 9.03497 93.945 9.33611C94.1097 9.63725 94.3342 9.88014 94.6183 10.0648C94.9052 10.2495 95.2305 10.3418 95.5941 10.3418ZM100.457 11.16L104.361 3.43838V3.3702H99.8608V2.4327H105.452V3.42134L101.565 11.16H100.457ZM109.66 11.2793C109.075 11.2793 108.558 11.1756 108.109 10.9682C107.663 10.758 107.315 10.4696 107.065 10.1032C106.815 9.73384 106.691 9.31338 106.694 8.84179C106.691 8.47247 106.763 8.13156 106.911 7.81906C107.059 7.50372 107.261 7.24094 107.516 7.03071C107.775 6.81764 108.063 6.6827 108.381 6.62588V6.57475C107.964 6.46679 107.631 6.23242 107.384 5.87162C107.137 5.50798 107.015 5.09463 107.018 4.63156C107.015 4.18838 107.127 3.79208 107.354 3.44264C107.582 3.09321 107.894 2.81764 108.292 2.61594C108.692 2.41423 109.148 2.31338 109.66 2.31338C110.165 2.31338 110.617 2.41423 111.015 2.61594C111.413 2.81764 111.725 3.09321 111.952 3.44264C112.183 3.79208 112.299 4.18838 112.302 4.63156C112.299 5.09463 112.173 5.50798 111.923 5.87162C111.675 6.23242 111.347 6.46679 110.938 6.57475V6.62588C111.254 6.6827 111.538 6.81764 111.79 7.03071C112.043 7.24094 112.245 7.50372 112.396 7.81906C112.546 8.13156 112.623 8.47247 112.626 8.84179C112.623 9.31338 112.495 9.73384 112.242 10.1032C111.992 10.4696 111.644 10.758 111.198 10.9682C110.755 11.1756 110.242 11.2793 109.66 11.2793ZM109.66 10.3418C110.055 10.3418 110.396 10.2779 110.683 10.15C110.969 10.0222 111.191 9.84179 111.347 9.60884C111.504 9.37588 111.583 9.10315 111.586 8.79065C111.583 8.46111 111.498 8.16992 111.33 7.91708C111.163 7.66423 110.934 7.46537 110.644 7.32048C110.357 7.1756 110.029 7.10315 109.66 7.10315C109.288 7.10315 108.955 7.1756 108.663 7.32048C108.373 7.46537 108.144 7.66423 107.977 7.91708C107.812 8.16992 107.731 8.46111 107.734 8.79065C107.731 9.10315 107.806 9.37588 107.96 9.60884C108.116 9.84179 108.339 10.0222 108.629 10.15C108.918 10.2779 109.262 10.3418 109.66 10.3418ZM109.66 6.19975C109.972 6.19975 110.249 6.13725 110.491 6.01225C110.735 5.88725 110.927 5.71253 111.066 5.4881C111.205 5.26367 111.276 5.00088 111.279 4.69975C111.276 4.40429 111.207 4.14719 111.07 3.92844C110.934 3.70685 110.745 3.53639 110.504 3.41708C110.262 3.29492 109.981 3.23384 109.66 3.23384C109.333 3.23384 109.048 3.29492 108.803 3.41708C108.559 3.53639 108.37 3.70685 108.237 3.92844C108.103 4.14719 108.038 4.40429 108.04 4.69975C108.038 5.00088 108.104 5.26367 108.241 5.4881C108.38 5.71253 108.572 5.88725 108.816 6.01225C109.06 6.13725 109.342 6.19975 109.66 6.19975ZM118.009 6.79634C118.009 5.72247 118.148 4.73526 118.426 3.83469C118.708 2.93128 119.108 2.10031 119.628 1.34179H120.515C120.31 1.62304 120.118 1.96963 119.939 2.38156C119.763 2.79065 119.608 3.24094 119.475 3.73242C119.341 4.22105 119.236 4.72673 119.159 5.24946C119.086 5.77219 119.049 6.28781 119.049 6.79634C119.049 7.47247 119.114 8.15855 119.245 8.85458C119.375 9.5506 119.551 10.1969 119.773 10.7935C119.995 11.3901 120.242 11.8759 120.515 12.2509H119.628C119.108 11.4924 118.708 10.6628 118.426 9.76225C118.148 8.85884 118.009 7.8702 118.009 6.79634ZM128.101 5.15997C128.007 4.87304 127.884 4.61594 127.73 4.38867C127.58 4.15855 127.399 3.96253 127.189 3.8006C126.982 3.63867 126.746 3.51509 126.482 3.42986C126.217 3.34463 125.928 3.30202 125.612 3.30202C125.095 3.30202 124.625 3.43554 124.202 3.70259C123.778 3.96963 123.442 4.3631 123.192 4.88298C122.942 5.40287 122.817 6.04065 122.817 6.79634C122.817 7.55202 122.943 8.1898 123.196 8.70969C123.449 9.22958 123.791 9.62304 124.223 9.89009C124.655 10.1571 125.141 10.2907 125.68 10.2907C126.18 10.2907 126.621 10.1841 127.001 9.97105C127.385 9.75514 127.683 9.45117 127.896 9.05912C128.112 8.66423 128.22 8.19975 128.22 7.66565L128.544 7.73384H125.919V6.79634H129.243V7.73384C129.243 8.45259 129.089 9.07759 128.783 9.60884C128.479 10.1401 128.058 10.552 127.521 10.8446C126.987 11.1344 126.374 11.2793 125.68 11.2793C124.908 11.2793 124.229 11.0975 123.643 10.7338C123.061 10.3702 122.607 9.85315 122.28 9.1827C121.956 8.51225 121.794 7.71679 121.794 6.79634C121.794 6.106 121.886 5.48526 122.071 4.93412C122.259 4.38014 122.523 3.90855 122.864 3.51935C123.205 3.13014 123.608 2.83185 124.074 2.62446C124.54 2.41708 125.053 2.31338 125.612 2.31338C126.072 2.31338 126.501 2.38298 126.899 2.52219C127.3 2.65855 127.656 2.85315 127.969 3.106C128.284 3.356 128.547 3.65571 128.757 4.00514C128.967 4.35173 129.112 4.73668 129.192 5.15997H128.101ZM130.917 11.16V4.61452H131.888V5.60315H131.956C132.076 5.27929 132.292 5.01651 132.604 4.8148C132.917 4.6131 133.269 4.51225 133.661 4.51225C133.735 4.51225 133.827 4.51367 133.938 4.51651C134.049 4.51935 134.132 4.52361 134.189 4.52929V5.55202C134.155 5.5435 134.077 5.53071 133.955 5.51367C133.836 5.49378 133.709 5.48384 133.576 5.48384C133.257 5.48384 132.973 5.5506 132.723 5.68412C132.476 5.8148 132.28 5.99662 132.135 6.22958C131.993 6.45969 131.922 6.72247 131.922 7.01793V11.16H130.917ZM137.308 11.3134C136.893 11.3134 136.516 11.2353 136.178 11.079C135.84 10.9199 135.572 10.6912 135.373 10.3929C135.174 10.0918 135.075 9.72815 135.075 9.30202C135.075 8.92702 135.148 8.62304 135.296 8.39009C135.444 8.15429 135.641 7.96963 135.888 7.83611C136.136 7.70259 136.408 7.60315 136.707 7.53781C137.008 7.46963 137.31 7.41566 137.614 7.37588C138.012 7.32475 138.335 7.28639 138.582 7.26083C138.832 7.23242 139.013 7.18554 139.127 7.1202C139.244 7.05486 139.302 6.94122 139.302 6.77929V6.7452C139.302 6.32475 139.187 5.99804 138.957 5.76509C138.729 5.53213 138.384 5.41565 137.921 5.41565C137.441 5.41565 137.065 5.52077 136.792 5.731C136.519 5.94122 136.327 6.16565 136.217 6.40429L135.262 6.06338C135.433 5.66565 135.66 5.356 135.944 5.1344C136.231 4.90997 136.543 4.75372 136.881 4.66565C137.222 4.57475 137.558 4.52929 137.887 4.52929C138.097 4.52929 138.339 4.55486 138.612 4.606C138.887 4.65429 139.153 4.75514 139.408 4.90855C139.667 5.06196 139.881 5.2935 140.052 5.60315C140.222 5.91281 140.308 6.32759 140.308 6.84747V11.16H139.302V10.2736H139.251C139.183 10.4157 139.069 10.5676 138.91 10.7296C138.751 10.8915 138.539 11.0293 138.275 11.1429C138.011 11.2566 137.688 11.3134 137.308 11.3134ZM137.461 10.41C137.859 10.41 138.194 10.3318 138.467 10.1756C138.742 10.0193 138.95 9.81764 139.089 9.57048C139.231 9.32333 139.302 9.06338 139.302 8.79065V7.8702C139.259 7.92134 139.165 7.96821 139.021 8.01083C138.879 8.0506 138.714 8.08611 138.526 8.11736C138.342 8.14577 138.161 8.17134 137.985 8.19406C137.812 8.21395 137.671 8.231 137.563 8.2452C137.302 8.27929 137.058 8.33469 136.83 8.41139C136.606 8.48526 136.424 8.59747 136.285 8.74804C136.148 8.89577 136.08 9.09747 136.08 9.35315C136.08 9.70259 136.21 9.96679 136.468 10.1458C136.729 10.3219 137.06 10.41 137.461 10.41ZM144.99 4.61452V5.46679H141.598V4.61452H144.99ZM142.586 3.04634H143.592V9.28497C143.592 9.56906 143.633 9.78213 143.716 9.92418C143.801 10.0634 143.909 10.1571 144.039 10.2054C144.173 10.2509 144.314 10.2736 144.461 10.2736C144.572 10.2736 144.663 10.2679 144.734 10.2566C144.805 10.2424 144.862 10.231 144.904 10.2225L145.109 11.1259C145.041 11.1515 144.946 11.177 144.824 11.2026C144.701 11.231 144.547 11.2452 144.359 11.2452C144.075 11.2452 143.797 11.1841 143.524 11.062C143.254 10.9398 143.029 10.7537 142.85 10.5037C142.674 10.2537 142.586 9.93838 142.586 9.5577V3.04634ZM146.502 11.16V4.61452H147.508V11.16H146.502ZM147.014 3.52361C146.818 3.52361 146.649 3.45685 146.507 3.32333C146.368 3.1898 146.298 3.02929 146.298 2.84179C146.298 2.65429 146.368 2.49378 146.507 2.36026C146.649 2.22673 146.818 2.15997 147.014 2.15997C147.21 2.15997 147.377 2.22673 147.517 2.36026C147.659 2.49378 147.73 2.65429 147.73 2.84179C147.73 3.02929 147.659 3.1898 147.517 3.32333C147.377 3.45685 147.21 3.52361 147.014 3.52361ZM153.987 6.08043L153.083 6.33611C153.026 6.18554 152.942 6.03923 152.832 5.89719C152.724 5.7523 152.576 5.63298 152.388 5.53923C152.201 5.44548 151.961 5.39861 151.668 5.39861C151.268 5.39861 150.934 5.49094 150.667 5.6756C150.403 5.85742 150.271 6.08895 150.271 6.3702C150.271 6.6202 150.362 6.81764 150.543 6.96253C150.725 7.10742 151.009 7.22815 151.396 7.32475L152.367 7.56338C152.952 7.70543 153.388 7.92276 153.675 8.21537C153.962 8.50514 154.106 8.87872 154.106 9.33611C154.106 9.71111 153.998 10.0463 153.782 10.3418C153.569 10.6372 153.271 10.8702 152.887 11.0407C152.504 11.2111 152.058 11.2963 151.549 11.2963C150.881 11.2963 150.329 11.1515 149.891 10.8617C149.454 10.5719 149.177 10.1486 149.06 9.59179L150.015 9.35315C150.106 9.70543 150.278 9.96963 150.531 10.1458C150.786 10.3219 151.12 10.41 151.532 10.41C152.001 10.41 152.373 10.3105 152.648 10.1117C152.927 9.90997 153.066 9.6685 153.066 9.38725C153.066 9.15997 152.987 8.96963 152.827 8.81622C152.668 8.65997 152.424 8.5435 152.094 8.46679L151.004 8.21111C150.404 8.06906 149.964 7.84889 149.683 7.5506C149.404 7.24946 149.265 6.87304 149.265 6.42134C149.265 6.05202 149.369 5.72531 149.576 5.44122C149.786 5.15713 150.072 4.93412 150.433 4.77219C150.796 4.61026 151.208 4.52929 151.668 4.52929C152.316 4.52929 152.825 4.67134 153.194 4.95543C153.566 5.23952 153.83 5.61452 153.987 6.08043ZM157.767 7.47815C157.767 8.55202 157.627 9.54065 157.346 10.4441C157.067 11.3446 156.668 12.1742 156.148 12.9327H155.262C155.466 12.6515 155.657 12.3049 155.833 11.8929C156.012 11.4838 156.168 11.035 156.301 10.5463C156.435 10.0549 156.539 9.54776 156.613 9.02503C156.689 8.49946 156.728 7.98384 156.728 7.47815C156.728 6.80202 156.662 6.11594 156.532 5.41992C156.401 4.72389 156.225 4.07759 156.003 3.481C155.782 2.8844 155.534 2.39861 155.262 2.02361H156.148C156.668 2.78213 157.067 3.6131 157.346 4.51651C157.627 5.41708 157.767 6.40429 157.767 7.47815Z" fill="white"/>
</svg>
